<?xml version="1.0" standalone="no"?>
<!DOCTYPE svg PUBLIC "-//W3C//DTD SVG 20010904//EN"
 "http://www.w3.org/TR/2001/REC-SVG-20010904/DTD/svg10.dtd">
<svg version="1.0" xmlns="http://www.w3.org/2000/svg"
 width="746.000000pt" height="960.000000pt" viewBox="0 0 746.000000 960.000000"
 preserveAspectRatio="xMidYMid meet">

<g transform="translate(0.000000,960.000000) scale(0.100000,-0.100000)"
fill="#000000" stroke="none">
<path d="M460 9576 c0 -14 5 -26 10 -26 6 0 10 9 10 19 0 11 -4 23 -10 26 -6
4 -10 -5 -10 -19z"/>
<path d="M805 9541 c3 -35 5 -72 5 -82 0 -11 5 -19 10 -19 7 0 9 21 4 63 -10
87 -26 120 -19 38z"/>
<path d="M4476 9223 c5 -31 -15 -60 -24 -34 -7 22 -50 32 -79 18 -21 -9 -27
-9 -31 1 -5 16 -17 15 -37 -4 -13 -13 -21 -14 -41 -6 -19 10 -24 9 -24 -3 0
-8 -6 -15 -14 -15 -8 0 -16 -6 -19 -12 -2 -7 -8 -10 -12 -6 -4 4 -2 14 5 23 7
9 10 18 7 22 -4 3 -16 -6 -28 -22 -19 -23 -28 -26 -58 -22 -31 4 -42 0 -66
-24 -15 -16 -32 -29 -36 -29 -4 0 -19 -20 -33 -45 -24 -41 -44 -54 -58 -40 -3
3 14 27 38 52 23 26 52 63 63 83 l19 35 -29 1 c-16 1 -29 -2 -29 -5 0 -3 -11
-7 -25 -7 -14 -1 -25 3 -25 8 0 6 -6 8 -14 5 -7 -3 -18 -1 -23 4 -6 6 -19 -2
-36 -21 -15 -16 -32 -30 -37 -30 -6 0 -10 -6 -10 -13 0 -8 -20 -28 -45 -46
-24 -17 -51 -39 -60 -47 -9 -9 -15 -11 -15 -4 0 11 70 80 82 80 3 0 15 15 26
34 l20 34 -38 10 c-32 8 -40 7 -51 -10 -8 -10 -20 -16 -27 -13 -7 2 -24 -2
-37 -11 -22 -15 -26 -15 -40 0 -20 20 -61 20 -99 1 -15 -8 -41 -15 -56 -15
-40 0 -60 -10 -60 -29 0 -13 -2 -14 -9 -2 -8 12 -12 12 -25 2 -13 -11 -17 -11
-22 3 -6 16 -73 24 -75 9 0 -5 -2 -18 -5 -30 -3 -20 0 -23 29 -23 18 0 38 5
45 12 7 7 12 8 12 2 0 -11 -20 -42 -20 -31 0 4 -15 0 -32 -10 -38 -19 -51 -23
-96 -25 -25 -2 -31 -6 -27 -18 8 -24 -36 -61 -69 -58 -24 2 -26 6 -21 28 4 14
14 33 22 43 9 9 13 17 8 17 -4 0 7 14 25 30 37 34 33 49 -7 31 -18 -8 -28 -9
-33 -1 -9 15 -70 -8 -70 -26 0 -11 -4 -12 -19 -2 -15 9 -24 7 -50 -11 -17 -12
-31 -18 -31 -13 0 29 -130 14 -166 -19 -24 -22 -38 -25 -31 -5 3 8 -1 17 -9
20 -23 9 -31 7 -15 -3 11 -7 9 -10 -9 -16 -15 -5 -31 -1 -52 15 -35 26 -70 23
-83 -7 -5 -13 -15 -23 -21 -23 -6 0 -17 -11 -24 -25 -7 -14 -18 -25 -23 -25
-5 0 -4 7 3 15 14 17 15 17 -22 33 -25 10 -28 10 -28 -8 0 -11 -6 -20 -13 -20
-7 0 -23 -9 -35 -20 -12 -11 -26 -20 -32 -20 -6 0 -20 -9 -32 -20 -12 -11 -28
-20 -35 -20 -22 0 -64 -43 -58 -60 4 -13 0 -16 -25 -12 -19 3 -30 0 -30 -8 0
-6 -9 -23 -20 -37 -11 -14 -20 -36 -20 -49 0 -14 -8 -25 -20 -29 -11 -3 -20
-11 -20 -18 0 -6 -9 -30 -21 -54 -12 -24 -23 -61 -26 -83 -3 -22 -10 -37 -14
-34 -5 3 -13 -5 -18 -18 -8 -21 -9 -20 -16 15 -5 27 -10 35 -16 25 -13 -20
-11 -82 4 -97 10 -11 8 -12 -12 -6 -22 7 -23 5 -17 -19 4 -15 2 -26 -4 -26 -5
0 -10 5 -10 11 0 5 -4 8 -9 5 -5 -3 -7 -15 -4 -25 8 -32 -16 -49 -56 -40 -29
6 -37 4 -49 -12 -7 -10 -25 -19 -40 -19 -26 -1 -26 -1 9 -20 34 -18 65 -63 54
-80 -3 -5 -21 -4 -41 2 -38 10 -58 3 -34 -12 13 -8 12 -12 -5 -24 -25 -19 -30
-19 -45 -1 -7 9 -21 13 -30 10 -9 -3 -23 2 -30 10 -16 20 -5 32 14 16 10 -8
16 -9 21 -1 3 5 17 10 31 10 17 0 24 6 24 19 0 11 -6 22 -12 24 -8 3 -6 6 5 6
22 1 22 17 -1 23 -17 5 -42 -13 -42 -29 0 -4 -10 -9 -22 -10 -84 -6 -159 -22
-193 -41 -22 -12 -45 -22 -52 -22 -7 0 -13 -4 -13 -10 0 -14 9 -12 55 10 22
11 55 19 73 20 32 0 32 0 16 -25 -16 -24 -15 -25 4 -25 11 0 26 -2 34 -3 7 -2
10 -2 6 0 -5 3 -8 11 -8 18 0 22 37 24 59 3 27 -24 26 -26 -6 -20 -16 2 -25 1
-21 -3 12 -13 -12 -35 -38 -35 -13 0 -25 -8 -29 -19 -3 -11 -12 -22 -20 -25
-8 -3 -15 -12 -15 -21 0 -8 -9 -15 -20 -15 -26 0 -26 -20 0 -27 11 -3 18 -9
15 -13 -3 -5 -14 -6 -25 -3 -11 3 -20 1 -20 -5 0 -6 -3 -19 -6 -29 -5 -15 -4
-15 5 -3 9 13 11 13 11 -1 0 -48 -13 -79 -34 -79 -16 0 -18 -2 -7 -9 15 -10
22 -129 9 -138 -13 -7 -8 -125 6 -165 7 -21 12 -59 10 -85 -1 -26 0 -52 4 -57
3 -6 7 -118 8 -249 1 -131 4 -240 6 -243 8 -7 78 69 78 85 0 9 16 25 35 35 26
14 34 24 30 37 -4 13 0 18 16 21 26 4 38 28 15 28 -23 0 -20 27 4 40 11 6 18
15 15 21 -4 5 -1 9 5 9 6 0 13 -7 16 -15 4 -8 11 -15 17 -15 6 0 8 3 4 6 -7 8
17 34 32 34 16 0 13 20 -3 26 -20 8 -7 44 15 44 20 0 59 33 59 50 0 5 11 12
23 15 15 4 29 19 37 39 7 18 23 41 36 51 13 10 24 24 24 31 0 8 5 14 11 14 16
0 65 53 74 79 3 11 13 21 21 21 8 0 17 13 21 30 4 21 11 30 24 30 11 0 19 4
19 10 0 5 12 13 28 16 40 10 44 14 30 31 -10 12 -9 18 6 28 10 8 15 18 11 24
-3 6 0 11 8 11 8 0 17 9 20 20 3 11 12 20 19 20 8 0 21 12 28 26 8 14 22 30
32 35 10 5 18 14 18 20 0 5 16 26 35 45 26 25 34 41 30 55 -4 13 2 30 19 50
15 17 23 36 19 42 -4 6 0 8 9 5 9 -4 31 7 54 28 21 18 43 34 47 34 5 0 6 3 4
8 -3 4 6 8 20 9 14 0 38 10 54 22 15 12 32 21 37 21 6 0 33 16 61 35 30 21 63
35 81 35 20 0 30 5 30 15 0 18 5 19 30 3 16 -11 23 -9 41 11 13 13 24 19 28
13 3 -6 33 -10 65 -10 49 1 59 4 63 19 6 23 23 25 23 4 0 -21 79 -14 92 8 11
21 63 24 55 3 -3 -8 3 -22 14 -32 17 -16 22 -16 30 -4 8 13 11 13 19 -2 6 -10
17 -15 26 -11 13 5 15 2 9 -16 -7 -22 -6 -22 15 -4 11 10 33 18 48 18 23 0 27
5 30 33 2 17 7 32 13 32 12 0 12 -43 -1 -56 -5 -5 -6 -15 0 -23 7 -12 11 -12
24 -2 13 11 17 11 22 -3 6 -15 8 -15 21 1 14 17 14 17 9 0 -3 -10 0 -20 9 -23
7 -3 11 -12 8 -20 -3 -8 0 -14 6 -14 6 0 11 12 11 28 0 32 16 60 27 48 4 -4 8
-20 8 -34 0 -34 25 -36 41 -4 20 40 24 36 21 -26 -2 -66 14 -86 24 -30 6 30 7
31 14 11 6 -19 11 -20 32 -12 33 12 35 10 23 -31 -5 -19 -7 -36 -5 -39 3 -2 5
1 5 7 0 7 7 12 15 12 9 0 21 11 27 25 14 31 28 32 29 3 0 -13 5 -32 10 -43 9
-18 9 -18 5 3 -3 18 -2 21 9 12 16 -13 26 8 19 42 -5 22 -5 22 9 5 15 -18 16
-17 22 4 11 35 21 5 19 -56 -2 -54 6 -66 31 -47 14 10 12 83 -2 109 -16 27
-17 63 -2 63 5 0 9 -8 8 -17 -1 -10 4 -33 11 -52 12 -32 14 -33 28 -15 14 19
14 18 7 -1 -28 -76 -27 -102 2 -72 15 15 17 15 29 -1 12 -15 13 -14 14 9 0 14
9 35 20 47 12 12 16 23 10 27 -16 10 -12 28 5 21 10 -4 15 1 15 15 0 11 7 22
16 26 10 4 14 13 10 28 -6 24 32 84 49 78 9 -3 26 20 65 86 16 28 40 50 54 51
5 0 1 -9 -9 -20 -10 -11 -16 -23 -13 -26 3 -3 15 6 26 20 11 15 25 26 32 26 7
0 38 13 69 29 31 16 68 32 84 35 44 10 32 -13 -20 -36 -27 -12 -66 -32 -87
-46 -22 -13 -45 -25 -52 -26 -18 -3 -44 -27 -44 -42 0 -7 -9 -16 -20 -19 -11
-3 -20 -12 -20 -19 0 -6 -13 -19 -29 -29 -38 -22 -60 -72 -76 -170 -17 -105
-24 -134 -41 -181 -18 -48 -12 -57 13 -19 20 32 86 94 92 87 2 -2 -4 -13 -14
-24 -10 -11 -15 -26 -11 -36 5 -14 9 -13 25 8 11 13 21 35 23 48 2 19 8 24 24
22 18 -2 22 4 28 36 3 22 13 46 23 53 19 16 18 11 -11 -68 -20 -54 -28 -120
-16 -128 5 -3 12 11 15 32 11 65 14 71 31 49 13 -19 14 -18 14 12 0 30 14 44
22 21 2 -6 12 7 23 28 44 85 129 222 138 220 5 -1 14 7 20 18 7 11 16 23 20
26 5 3 8 9 8 13 -3 20 3 25 42 31 27 5 54 18 75 39 l33 31 -7 -29 c-6 -25 -4
-28 10 -23 21 8 21 -9 -1 -22 -10 -5 -15 -12 -12 -16 11 -10 87 35 118 70 16
19 31 32 34 29 2 -2 21 23 41 56 40 65 49 73 42 38 -3 -13 -8 -41 -11 -63 l-7
-40 39 48 c31 38 39 43 41 28 2 -11 -6 -37 -17 -59 -15 -30 -17 -42 -8 -45 9
-3 7 -12 -6 -36 -23 -40 -18 -39 28 3 20 19 44 32 51 29 8 -3 14 1 14 8 0 8 6
6 14 -6 11 -16 11 -31 3 -72 -6 -29 -15 -53 -19 -53 -4 0 -8 -9 -8 -20 0 -19
14 -24 57 -23 7 0 1 -14 -13 -33 -14 -18 -31 -31 -38 -28 -7 3 -20 -4 -29 -14
-16 -18 -16 -19 3 -17 12 1 35 14 52 28 17 15 44 37 59 48 39 27 40 64 2 64
-16 1 -31 -4 -35 -10 -18 -24 -6 30 12 60 15 24 18 39 12 56 -10 26 7 139 20
139 4 0 5 21 1 47 -4 32 -3 44 5 39 16 -10 36 -77 25 -85 -18 -11 -24 -48 -13
-76 10 -27 11 -27 25 -9 8 10 15 35 15 54 0 52 11 85 21 68 13 -19 11 -60 -2
-53 -7 5 -8 -5 -4 -29 5 -24 3 -36 -4 -36 -6 0 -11 -9 -11 -20 0 -11 -4 -20
-10 -20 -5 0 -9 -12 -9 -27 1 -17 3 -21 6 -10 7 26 32 21 27 -5 -2 -13 -2 -17
2 -10 14 29 29 11 27 -30 l-3 -43 23 62 c14 36 22 74 19 92 -3 20 2 36 13 47
9 10 12 20 7 23 -5 3 -9 17 -8 31 1 17 8 26 26 30 26 7 28 25 8 64 -10 18 -11
18 -20 2 -8 -15 -12 -14 -30 9 -24 30 -16 45 13 26 30 -18 36 -5 10 23 -13 14
-30 22 -41 19 -12 -3 -20 2 -25 17 -9 30 0 36 22 14 17 -17 18 -17 21 4 5 31
20 27 40 -9 23 -43 63 -91 70 -84 3 2 -3 14 -13 25 -10 11 -13 20 -8 20 6 0
16 -7 23 -15 7 -9 15 -13 18 -10 8 8 -129 135 -145 135 -7 0 -13 4 -13 8 0 19
14 20 38 4 l27 -17 -23 32 c-12 17 -22 43 -22 57 0 14 -4 26 -10 26 -5 0 -10
-9 -10 -20 0 -11 -7 -23 -15 -26 -9 -4 -14 -14 -11 -23 14 -51 17 -81 7 -81
-6 0 -11 8 -11 18 0 9 -7 30 -15 46 -16 31 -20 70 -6 62 5 -3 9 0 8 7 -1 39 4
48 22 42 13 -4 20 0 24 15 5 21 7 21 -93 25 -19 1 -39 -2 -45 -5 -5 -4 -23
-10 -39 -14 -23 -6 -27 -4 -23 8 5 13 -1 16 -28 16 -23 0 -35 5 -35 13 0 8
-12 15 -27 15 -16 1 -37 3 -48 4 -14 2 -21 -4 -23 -19 -2 -13 -7 -23 -11 -23
-4 0 -6 13 -3 29 3 23 -1 29 -18 34 -16 4 -21 11 -16 22 4 10 -2 19 -17 26
-13 6 -27 20 -32 31 -13 28 -59 62 -76 55 -9 -3 -5 -8 12 -15 39 -15 61 -41
54 -63 -4 -12 -1 -21 9 -25 29 -11 17 -19 -29 -21 -25 0 -42 3 -39 8 3 5 0 9
-5 9 -6 0 -11 7 -11 15 0 24 -13 18 -59 -26 -23 -23 -45 -39 -48 -36 -5 6 4
19 40 59 23 24 16 32 -29 34 -22 0 -34 -4 -34 -13 0 -7 -4 -13 -9 -13 -5 0
-11 -10 -15 -22 -5 -19 -8 -20 -15 -8 -7 9 -6 17 1 21 6 4 8 15 4 24 -4 12 0
18 14 22 11 3 20 9 20 14 0 15 -62 41 -85 35 -14 -4 -26 -1 -29 7 -3 6 -3 -2
0 -20z m-66 -51 c0 -8 -14 -16 -62 -40 -21 -10 -4 16 20 30 30 19 42 22 42 10z
m-410 -6 c0 -3 -4 -8 -10 -11 -5 -3 -10 -1 -10 4 0 6 5 11 10 11 6 0 10 -2 10
-4z m535 -25 c-3 -17 -2 -32 4 -36 16 -9 13 -25 -4 -25 -8 0 -15 7 -15 15 0 8
-7 15 -15 15 -9 0 -15 9 -15 25 0 28 20 35 21 8 0 -14 2 -13 9 5 13 32 23 27
15 -7z m-911 -15 c-6 -15 -24 -23 -24 -11 0 8 24 34 28 30 1 -1 0 -10 -4 -19z
m136 19 c0 -10 -83 -85 -88 -80 -6 6 68 85 80 85 4 0 8 -2 8 -5z m844 -21 c3
-8 2 -12 -4 -9 -6 3 -10 10 -10 16 0 14 7 11 14 -7z m-187 -76 c-3 -7 -5 -2
-5 12 0 14 2 19 5 13 2 -7 2 -19 0 -25z m47 17 c-4 -8 -2 -15 4 -15 6 0 13 6
15 13 3 7 6 5 6 -5 1 -12 -6 -18 -19 -18 -13 0 -20 7 -20 20 0 11 4 20 10 20
5 0 7 -7 4 -15z m-809 -44 c-3 -6 -11 -11 -17 -11 -6 0 -6 6 2 15 14 17 26 13
15 -4z m-285 -9 c0 -4 -31 -40 -68 -80 -51 -54 -73 -71 -86 -66 -14 5 -11 11
18 32 20 14 36 30 36 36 0 14 83 94 93 89 4 -2 7 -7 7 -11z m1517 -4 c-3 -8
-6 -5 -6 6 -1 11 2 17 5 13 3 -3 4 -12 1 -19z m-1014 -61 c-19 -31 -35 -46
-48 -46 -11 0 -14 3 -7 6 6 2 12 10 12 17 0 14 59 80 66 73 3 -2 -8 -25 -23
-50z m-353 -26 c-11 -22 -25 -43 -31 -46 -11 -7 15 49 33 73 19 23 18 12 -2
-27z m1637 17 c-3 -8 -6 -5 -6 6 -1 11 2 17 5 13 3 -3 4 -12 1 -19z m-2077 -5
c0 -5 -5 -15 -10 -23 -8 -12 -10 -11 -10 8 0 12 5 22 10 22 6 0 10 -3 10 -7z
m1724 -9 c3 -8 2 -12 -4 -9 -6 3 -10 10 -10 16 0 14 7 11 14 -7z m-824 -18 c0
-2 -8 -10 -17 -17 -16 -13 -17 -12 -4 4 13 16 21 21 21 13z m213 -3 c-7 -2
-19 -2 -25 0 -7 3 -2 5 12 5 14 0 19 -2 13 -5z m563 -49 c-10 -27 -15 -32 -15
-17 -1 27 20 82 25 67 3 -5 -2 -28 -10 -50z m268 47 c3 -5 -1 -14 -8 -20 -12
-10 -14 -9 -11 6 2 10 4 19 4 21 2 5 10 2 15 -7z m-107 -53 c-3 -7 -5 -2 -5
12 0 14 2 19 5 13 2 -7 2 -19 0 -25z m201 9 c6 -5 12 -14 12 -20 0 -7 -4 -7
-12 1 -7 7 -18 12 -26 12 -7 0 -20 7 -29 15 -14 14 -13 15 13 9 16 -4 35 -11
42 -17z m-1454 -2 c-4 -8 -11 -15 -16 -15 -6 0 -5 6 2 15 7 8 14 15 16 15 2 0
1 -7 -2 -15z m42 -12 c-10 -10 -19 5 -10 18 6 11 8 11 12 0 2 -7 1 -15 -2 -18z
m534 22 c0 -7 -83 -85 -91 -85 -3 0 -21 -14 -39 -32 -57 -54 -44 -16 15 45 31
32 51 49 45 37 -15 -29 -4 -25 28 10 24 27 42 37 42 25z m120 -15 c19 -35 -28
-146 -86 -204 -49 -49 -103 -90 -110 -84 -2 3 7 13 22 22 14 10 23 20 20 23
-3 3 -32 -18 -66 -47 -61 -53 -86 -52 -27 1 17 17 56 52 85 79 32 29 51 53 47
60 -4 6 5 24 19 39 15 16 28 39 29 52 3 26 34 79 48 79 4 0 13 -9 19 -20z
m857 -15 c2 -11 0 -15 -3 -9 -3 7 -14 10 -24 7 -11 -3 -20 -1 -20 4 0 30 44
28 47 -2z m-1424 -10 c-17 -23 -33 -32 -33 -18 0 10 32 43 42 43 5 0 1 -11 -9
-25z m50 -5 c-34 -32 -56 -39 -47 -16 5 12 58 45 74 46 3 0 -9 -14 -27 -30z
m727 9 c0 -6 -4 -7 -10 -4 -5 3 -10 11 -10 16 0 6 5 7 10 4 6 -3 10 -11 10
-16z m-870 -7 c0 -13 -89 -107 -95 -100 -3 3 13 25 35 49 22 24 40 47 40 51 0
5 5 8 10 8 6 0 10 -4 10 -8z m195 -14 c-1 -22 -80 -86 -91 -75 -6 5 76 97 86
97 4 0 6 -10 5 -22z m1205 12 c0 -5 -2 -10 -4 -10 -3 0 -8 5 -11 10 -3 6 -1
10 4 10 6 0 11 -4 11 -10z m-888 -42 c-8 -8 -9 -4 -5 13 4 13 8 18 11 10 2 -7
-1 -18 -6 -23z m30 10 c-7 -7 -12 -8 -12 -2 0 14 12 26 19 19 2 -3 -1 -11 -7
-17z m-178 -28 c-15 -22 -33 -40 -40 -40 -8 0 -14 -4 -14 -9 0 -5 -8 -12 -18
-15 -9 -3 -22 -14 -29 -24 -10 -17 -8 -18 14 -14 36 7 22 -13 -25 -36 -30 -14
-41 -15 -61 -6 -23 12 -23 12 -2 19 12 3 21 10 21 15 0 5 18 19 39 31 22 12
39 25 38 29 -1 3 16 22 38 41 22 18 42 37 43 42 2 4 8 7 13 7 5 0 -3 -18 -17
-40z m220 28 c-10 -23 -115 -109 -124 -103 -18 11 -10 26 23 40 17 7 45 27 61
44 30 32 50 41 40 19z m-284 -7 c0 -9 -93 -61 -107 -61 -7 0 97 70 104 70 2 0
3 -4 3 -9z m1127 -33 c-3 -8 -6 -5 -6 6 -1 11 2 17 5 13 3 -3 4 -12 1 -19z
m-1357 -3 c0 -2 -7 -5 -15 -9 -9 -3 -15 0 -15 9 0 9 6 12 15 9 8 -4 15 -7 15
-9z m1200 -23 c0 -4 -13 -16 -30 -25 -35 -21 -41 -6 -8 17 25 18 38 20 38 8z
m227 -7 c0 -8 -4 -15 -9 -15 -10 0 -11 14 -1 23 9 10 10 9 10 -8z m79 -59 c7
-14 8 -30 3 -38 -5 -7 -9 -11 -9 -8 0 3 -4 20 -9 38 -11 37 -1 43 15 8z m51 2
c-3 -8 -6 -5 -6 6 -1 11 2 17 5 13 3 -3 4 -12 1 -19z m-257 2 c0 -5 -2 -10 -4
-10 -3 0 -8 5 -11 10 -3 6 -1 10 4 10 6 0 11 -4 11 -10z m-967 -30 c-5 -20
-33 -29 -33 -10 0 7 25 27 37 30 0 0 -1 -9 -4 -20z m412 -116 c-11 -8 -27 -20
-35 -27 -28 -24 -40 -29 -34 -15 7 18 76 69 83 62 3 -3 -3 -12 -14 -20z m485
-35 c0 -11 -4 -18 -10 -14 -5 3 -7 12 -3 20 7 21 13 19 13 -6z m-1235 -52
c-14 -33 -35 -58 -35 -41 0 4 10 28 22 53 25 52 36 43 13 -12z m655 38 c-7 -8
-22 -15 -34 -15 -21 1 -21 1 -2 15 27 21 53 20 36 0z m-425 -25 c-10 -11 -23
-20 -28 -20 -6 0 0 11 13 25 27 29 42 25 15 -5z m445 6 c0 -2 -7 -7 -16 -10
-8 -3 -12 -2 -9 4 6 10 25 14 25 6z m20 -20 c0 -2 -7 -9 -15 -16 -13 -11 -14
-10 -9 4 5 14 24 23 24 12z m40 0 c0 -2 -8 -10 -17 -17 -16 -13 -17 -12 -4 4
13 16 21 21 21 13z m40 -21 c-7 -9 -15 -13 -17 -11 -7 7 7 26 19 26 6 0 6 -6
-2 -15z m-245 -35 c-10 -11 -25 -20 -34 -20 -12 0 -9 6 9 20 33 26 48 26 25 0z
m225 -10 c0 -5 -4 -10 -10 -10 -5 0 -10 5 -10 10 0 6 5 10 10 10 6 0 10 -4 10
-10z m-1149 -43 c-10 -9 -11 -8 -5 6 3 10 9 15 12 12 3 -3 0 -11 -7 -18z
m1023 -47 c-16 -31 -34 -48 -34 -32 0 9 38 62 45 62 2 0 -3 -13 -11 -30z
m-360 -115 c-4 -8 -11 -12 -16 -9 -6 4 -5 10 3 15 19 12 19 11 13 -6z m203
-47 c-3 -8 -6 -5 -6 6 -1 11 2 17 5 13 3 -3 4 -12 1 -19z m-2720 -440 c-3 -8
-6 -5 -6 6 -1 11 2 17 5 13 3 -3 4 -12 1 -19z m13 -49 c0 -6 -4 -7 -10 -4 -5
3 -10 11 -10 16 0 6 5 7 10 4 6 -3 10 -11 10 -16z m145 -459 c3 -5 -1 -10 -10
-10 -9 0 -13 5 -10 10 3 6 8 10 10 10 2 0 7 -4 10 -10z"/>
<path d="M4327 8818 c-19 -42 -21 -58 -7 -58 16 0 31 39 27 68 -3 27 -3 27
-20 -10z"/>
<path d="M4675 9190 c3 -5 8 -10 11 -10 2 0 4 5 4 10 0 6 -5 10 -11 10 -5 0
-7 -4 -4 -10z"/>
<path d="M3189 9081 c-13 -11 -20 -23 -16 -27 4 -4 20 4 35 19 30 31 16 37
-19 8z"/>
<path d="M2960 9080 c0 -5 4 -10 9 -10 6 0 13 5 16 10 3 6 -1 10 -9 10 -9 0
-16 -4 -16 -10z"/>
<path d="M3240 9054 c0 -8 5 -12 10 -9 6 3 10 10 10 16 0 5 -4 9 -10 9 -5 0
-10 -7 -10 -16z"/>
<path d="M2770 9049 c0 -5 5 -7 10 -4 6 3 10 8 10 11 0 2 -4 4 -10 4 -5 0 -10
-5 -10 -11z"/>
<path d="M2290 9005 c-7 -9 -11 -17 -9 -20 3 -2 10 5 17 15 14 24 10 26 -8 5z"/>
<path d="M3145 8970 c-3 -5 -2 -10 4 -10 5 0 13 5 16 10 3 6 2 10 -4 10 -5 0
-13 -4 -16 -10z"/>
<path d="M2241 8897 c0 -10 -11 -21 -23 -26 -15 -5 -18 -10 -9 -16 18 -10 44
18 38 41 -4 17 -5 17 -6 1z"/>
<path d="M2100 8800 c-32 -27 -33 -29 -13 -30 13 0 37 13 55 30 28 25 30 29
13 29 -11 0 -36 -13 -55 -29z"/>
<path d="M2044 8762 c-15 -10 -34 -48 -28 -55 11 -10 33 4 28 18 -4 8 3 15 17
17 19 2 20 5 8 15 -8 6 -19 9 -25 5z"/>
<path d="M2095 8690 c3 -5 8 -10 11 -10 2 0 4 5 4 10 0 6 -5 10 -11 10 -5 0
-7 -4 -4 -10z"/>
<path d="M2045 8680 c-3 -5 -1 -10 4 -10 6 0 11 5 11 10 0 6 -2 10 -4 10 -3 0
-8 -4 -11 -10z"/>
<path d="M1960 8673 c0 -5 5 -15 10 -23 8 -12 10 -11 10 8 0 12 -4 22 -10 22
-5 0 -10 -3 -10 -7z"/>
<path d="M1975 8610 c3 -5 8 -10 11 -10 2 0 4 5 4 10 0 6 -5 10 -11 10 -5 0
-7 -4 -4 -10z"/>
<path d="M2017 8580 c-3 -11 -2 -20 3 -20 4 0 10 9 13 20 3 11 2 20 -3 20 -4
0 -10 -9 -13 -20z"/>
<path d="M5330 8596 c0 -2 7 -6 15 -10 8 -3 15 -1 15 4 0 6 -7 10 -15 10 -8 0
-15 -2 -15 -4z"/>
<path d="M1940 8517 c0 -11 30 -67 35 -67 6 0 -16 52 -27 65 -4 5 -8 6 -8 2z"/>
<path d="M4828 8459 c-9 -16 -14 -29 -9 -29 8 0 34 50 29 56 -2 1 -11 -11 -20
-27z"/>
<path d="M5326 8414 c-4 -14 -5 -29 -2 -31 3 -3 8 7 12 21 3 15 4 29 1 32 -2
3 -8 -7 -11 -22z"/>
<path d="M4990 8409 c0 -5 5 -7 10 -4 6 3 10 8 10 11 0 2 -4 4 -10 4 -5 0 -10
-5 -10 -11z"/>
<path d="M5025 8410 c-3 -5 -1 -10 4 -10 6 0 11 5 11 10 0 6 -2 10 -4 10 -3 0
-8 -4 -11 -10z"/>
<path d="M1855 8370 c3 -5 11 -10 16 -10 6 0 7 5 4 10 -3 6 -11 10 -16 10 -6
0 -7 -4 -4 -10z"/>
<path d="M5441 8364 c0 -11 3 -14 6 -6 3 7 2 16 -1 19 -3 4 -6 -2 -5 -13z"/>
<path d="M4678 8335 c-21 -20 -38 -40 -38 -45 0 -6 -6 -10 -14 -10 -8 0 -24
-12 -35 -27 -12 -16 -33 -41 -46 -56 -14 -15 -23 -33 -19 -39 4 -7 3 -8 -4 -4
-7 4 -15 -9 -22 -36 -6 -24 -16 -56 -22 -71 -15 -39 -3 -44 18 -8 10 16 21 28
25 25 4 -2 12 19 19 47 7 27 14 49 15 47 2 -2 0 -36 -5 -76 -4 -41 -4 -86 0
-100 5 -15 9 -21 9 -14 2 23 20 12 24 -15 2 -16 3 2 0 39 -3 51 0 73 13 92 9
14 20 23 25 20 5 -3 9 3 9 13 1 10 18 54 40 98 22 44 35 82 30 83 -16 6 -12
24 12 49 34 36 7 27 -34 -12z"/>
<path d="M4823 8351 c-17 -11 -48 -46 -68 -78 -21 -32 -46 -68 -58 -80 -11
-13 -17 -23 -13 -23 4 0 -1 -15 -12 -32 -18 -30 -52 -128 -52 -150 0 -5 6 -6
13 -1 12 8 17 9 37 12 5 0 22 27 38 59 32 63 52 97 97 163 17 24 33 51 38 59
4 9 6 3 3 -15 l-4 -30 19 24 c19 24 26 81 10 81 -5 0 -26 -19 -46 -42 l-36
-43 22 40 c11 22 28 48 37 58 19 22 15 22 -25 -2z"/>
<path d="M4554 8343 c-20 -19 -32 -69 -14 -58 6 3 10 13 10 21 0 9 10 24 23
35 12 10 17 18 11 19 -6 0 -20 -8 -30 -17z"/>
<path d="M4966 8335 c-3 -9 0 -15 8 -15 7 0 19 7 26 15 10 12 9 15 -8 15 -11
0 -22 -7 -26 -15z"/>
<path d="M5270 8340 c0 -5 5 -10 10 -10 6 0 10 5 10 10 0 6 -4 10 -10 10 -5 0
-10 -4 -10 -10z"/>
<path d="M3185 8310 c3 -5 8 -10 11 -10 2 0 4 5 4 10 0 6 -5 10 -11 10 -5 0
-7 -4 -4 -10z"/>
<path d="M4136 8303 c-6 -14 -5 -15 5 -6 7 7 10 15 7 18 -3 3 -9 -2 -12 -12z"/>
<path d="M4910 8303 c-9 -10 -26 -35 -38 -55 -13 -21 -29 -41 -36 -45 -6 -5
-31 -36 -54 -70 -50 -74 -68 -138 -48 -169 9 -13 11 -26 5 -36 -10 -18 -6 -22
32 -31 29 -7 66 14 55 32 -5 8 -13 8 -27 0 -20 -10 -20 -9 -4 20 16 31 35 41
35 19 0 -7 13 8 28 33 15 25 39 57 53 70 25 23 48 89 31 89 -12 0 -44 -40 -67
-83 -11 -20 -23 -37 -27 -37 -8 0 -4 47 5 57 12 12 7 22 -8 17 -8 -4 -15 -5
-15 -3 0 4 63 123 93 177 19 34 11 43 -13 15z"/>
<path d="M4950 8294 c0 -12 6 -15 23 -10 12 3 25 6 30 6 4 0 7 5 7 10 0 6 -13
10 -30 10 -21 0 -30 -5 -30 -16z"/>
<path d="M5227 8304 c-4 -4 -7 -14 -7 -23 0 -11 3 -12 11 -4 6 6 10 16 7 23
-2 6 -7 8 -11 4z"/>
<path d="M5323 8273 c-7 -15 -13 -33 -13 -40 0 -7 -9 -23 -21 -35 -35 -39 -79
-100 -79 -111 0 -6 7 -2 15 9 8 10 15 14 15 8 0 -7 7 -14 14 -17 11 -4 13 -1
9 10 -5 12 -3 14 7 8 9 -5 11 -4 6 3 -8 13 25 82 48 101 9 7 13 17 10 22 -2 5
2 19 11 32 13 21 12 37 -4 37 -3 0 -12 -12 -18 -27z"/>
<path d="M4559 8273 c-13 -16 -12 -17 4 -4 16 13 21 21 13 21 -2 0 -10 -8 -17
-17z"/>
<path d="M5141 8241 c-43 -42 -52 -57 -25 -47 15 6 15 4 0 -18 -30 -47 0 -34
47 19 30 34 45 59 41 69 -9 23 -18 20 -63 -23z"/>
<path d="M4530 8240 c-9 -6 -10 -10 -3 -10 6 0 15 5 18 10 8 12 4 12 -15 0z"/>
<path d="M5247 8213 c-4 -3 -7 -11 -7 -17 0 -6 5 -5 12 2 6 6 9 14 7 17 -3 3
-9 2 -12 -2z"/>
<path d="M4900 8167 c-28 -41 -31 -47 -26 -47 7 0 49 61 44 65 -2 2 -10 -6
-18 -18z"/>
<path d="M4998 8173 c-26 -16 -43 -41 -35 -49 2 -2 17 7 33 21 16 14 32 25 37
25 4 0 7 5 7 10 0 14 -11 12 -42 -7z"/>
<path d="M5214 8156 c-9 -15 -14 -29 -11 -32 3 -3 13 6 23 20 9 15 14 29 11
32 -3 3 -13 -6 -23 -20z"/>
<path d="M4453 8158 c-14 -18 -36 -85 -24 -73 11 11 43 85 37 85 -2 0 -8 -6
-13 -12z"/>
<path d="M5315 8156 c-5 -12 -3 -21 6 -27 19 -12 29 -11 29 1 0 6 10 8 24 4
18 -4 27 -1 36 15 12 23 1 28 -18 9 -10 -10 -14 -10 -21 0 -7 11 -11 10 -24
-2 -14 -15 -16 -14 -20 2 -4 16 -4 16 -12 -2z"/>
<path d="M1582 8130 c-10 -17 -10 -20 3 -20 8 0 15 9 15 20 0 11 -1 20 -3 20
-1 0 -8 -9 -15 -20z"/>
<path d="M4945 8057 c-17 -40 -41 -63 -30 -28 10 32 -14 26 -25 -6 -6 -16 -19
-45 -30 -66 -11 -22 -20 -41 -20 -43 0 -10 25 -2 42 13 14 12 18 13 18 2 0
-10 4 -9 17 3 14 15 14 19 2 34 -12 15 -12 17 1 12 8 -3 15 -17 15 -31 -1 -35
4 -34 45 8 33 34 36 61 4 34 -14 -11 -18 -11 -21 -1 -3 6 -10 9 -15 6 -7 -4
-8 -2 -4 5 4 6 11 9 16 6 5 -3 23 8 39 24 32 31 43 54 16 31 -13 -11 -19 -9
-35 10 l-20 23 -15 -36z"/>
<path d="M4602 8050 c0 -14 2 -19 5 -12 2 6 2 18 0 25 -3 6 -5 1 -5 -13z"/>
<path d="M4381 8044 c0 -11 3 -14 6 -6 3 7 2 16 -1 19 -3 4 -6 -2 -5 -13z"/>
<path d="M4440 8025 c0 -8 4 -15 10 -15 5 0 7 7 4 15 -4 8 -8 15 -10 15 -2 0
-4 -7 -4 -15z"/>
<path d="M4143 7990 c-19 -29 -17 -48 3 -28 9 8 14 23 12 32 -3 14 -5 14 -15
-4z"/>
<path d="M4231 7954 c0 -11 3 -14 6 -6 3 7 2 16 -1 19 -3 4 -6 -2 -5 -13z"/>
<path d="M5436 7955 c-3 -8 -1 -15 4 -15 6 0 10 7 10 15 0 8 -2 15 -4 15 -2 0
-6 -7 -10 -15z"/>
<path d="M4267 7943 c-4 -3 -7 -11 -7 -17 0 -6 5 -5 12 2 6 6 9 14 7 17 -3 3
-9 2 -12 -2z"/>
<path d="M4815 7870 c-3 -5 -1 -10 4 -10 6 0 11 5 11 10 0 6 -2 10 -4 10 -3 0
-8 -4 -11 -10z"/>
<path d="M1650 7020 c-8 -5 -11 -12 -8 -16 10 -9 38 3 38 16 0 12 -10 13 -30
0z"/>
<path d="M1691 6996 c-7 -8 -27 -14 -45 -13 -27 1 -42 -7 -72 -39 -22 -21 -38
-42 -36 -47 1 -4 4 -75 7 -159 3 -83 9 -156 12 -161 3 -5 7 -31 8 -56 4 -78 5
-81 15 -81 6 0 10 14 10 30 0 17 5 30 10 30 15 0 12 21 -6 41 -12 13 -13 22
-5 36 6 11 11 13 11 5 0 -8 11 0 25 16 29 35 32 47 9 38 -15 -6 -15 -4 -3 10
8 9 14 30 15 46 2 26 -1 29 -22 24 -16 -4 -24 -2 -25 6 -3 29 4 53 16 60 7 5
11 17 8 28 -3 10 2 26 11 35 18 18 21 45 6 45 -15 0 -12 26 5 40 9 7 14 19 11
27 -3 8 2 13 12 13 9 0 23 9 30 20 14 23 10 27 -7 6z m-81 -388 c0 -6 -3 -8
-7 -5 -3 4 -12 2 -20 -4 -13 -11 -19 2 -6 14 11 11 33 8 33 -5z"/>
<path d="M1600 6440 c0 -11 4 -20 9 -20 5 0 7 9 4 20 -3 11 -7 20 -9 20 -2 0
-4 -9 -4 -20z"/>
<path d="M1572 6362 c4 -48 32 -52 34 -5 1 23 -3 33 -18 36 -17 5 -19 1 -16
-31z"/>
<path d="M3165 5980 c-3 -5 -2 -10 4 -10 5 0 13 5 16 10 3 6 2 10 -4 10 -5 0
-13 -4 -16 -10z"/>
<path d="M3090 5964 c0 -11 5 -14 16 -10 9 3 22 6 30 6 9 0 12 5 9 10 -10 17
-55 12 -55 -6z"/>
<path d="M3197 5953 c-10 -3 -30 -11 -44 -18 -17 -9 -33 -11 -49 -5 -14 6 -26
5 -29 -1 -4 -5 -12 -9 -18 -8 -7 1 -21 -2 -31 -6 -13 -6 -21 -4 -24 3 -6 19
-32 14 -64 -13 l-30 -25 29 0 c25 -1 26 -2 9 -11 -16 -10 -14 -13 24 -30 46
-21 75 -25 65 -9 -3 6 1 10 9 10 9 0 16 -4 16 -10 0 -15 42 -12 83 5 20 8 57
15 82 15 48 0 64 19 18 21 -22 1 -23 3 -7 6 12 2 27 15 34 29 7 13 17 24 22
24 4 0 8 4 8 9 0 4 -12 8 -27 8 -16 0 -35 2 -43 5 -8 3 -23 4 -33 1z m33 -43
c0 -5 -5 -10 -11 -10 -5 0 -7 5 -4 10 3 6 8 10 11 10 2 0 4 -4 4 -10z m-240
-40 c0 -5 -4 -10 -10 -10 -5 0 -10 5 -10 10 0 6 5 10 10 10 6 0 10 -4 10 -10z"/>
<path d="M3333 5913 c9 -2 23 -2 30 0 6 3 -1 5 -18 5 -16 0 -22 -2 -12 -5z"/>
<path d="M3580 5890 c-13 -8 -12 -10 3 -10 9 0 17 5 17 10 0 12 -1 12 -20 0z"/>
<path d="M1628 5867 c-3 -15 -1 -30 4 -33 16 -10 20 4 11 33 l-10 28 -5 -28z"/>
<path d="M3700 5875 c0 -11 -9 -16 -32 -15 -18 0 -51 -2 -73 -5 -65 -7 -247
-7 -282 1 -22 4 -33 3 -33 -5 0 -6 11 -11 25 -11 13 0 40 -9 60 -20 20 -11 46
-20 59 -20 14 0 26 -4 28 -9 2 -5 18 -12 35 -16 26 -5 32 -4 28 7 -4 11 12 13
83 12 49 -1 98 -7 110 -13 11 -6 49 -11 84 -11 38 0 58 -4 50 -9 -11 -7 -11
-11 2 -24 9 -8 16 -20 16 -26 0 -16 11 -14 32 6 17 15 20 15 28 3 6 -9 10 -10
10 -4 0 13 -60 69 -80 76 -7 2 -12 16 -12 31 0 21 -6 28 -27 33 -14 3 -35 9
-46 14 -47 20 -65 22 -65 5z"/>
<path d="M2880 5864 c0 -8 5 -12 10 -9 6 3 10 10 10 16 0 5 -4 9 -10 9 -5 0
-10 -7 -10 -16z"/>
<path d="M1680 5752 c0 -7 -8 -12 -17 -13 -11 0 -7 -5 10 -11 35 -13 46 -3 24
19 -11 11 -17 13 -17 5z"/>
<path d="M3726 5743 c-3 -3 -3 -10 0 -14 7 -12 34 -11 34 0 0 11 -26 22 -34
14z"/>
<path d="M1314 5625 c3 -9 6 -23 6 -31 0 -8 9 -14 20 -14 11 0 20 5 20 10 0 6
-5 10 -10 10 -6 0 -10 8 -8 17 2 10 -5 19 -16 21 -14 3 -17 0 -12 -13z"/>
<path d="M3343 5468 c-40 -4 -86 -14 -102 -23 -17 -8 -37 -15 -46 -15 -8 0
-23 -9 -32 -20 -10 -11 -26 -20 -36 -20 -10 0 -21 -8 -24 -18 -3 -13 -14 -17
-43 -17 -28 0 -45 -7 -60 -22 -24 -26 -25 -33 -5 -33 14 0 13 -3 -1 -25 -19
-29 -17 -30 25 -9 30 15 34 15 50 0 27 -25 41 -20 35 12 -4 20 0 33 15 46 11
10 18 24 14 30 -4 8 -3 8 6 0 17 -15 78 16 112 57 l25 31 -4 -36 -4 -36 33 6
c19 4 38 11 44 15 16 15 23 10 30 -23 11 -47 42 -88 68 -88 12 0 33 9 46 19
19 15 23 25 20 58 -5 48 7 64 38 50 15 -7 27 -5 43 6 l21 15 -23 16 c-12 9
-35 16 -50 16 -16 0 -28 3 -28 8 0 9 -74 9 -167 0z"/>
<path d="M3855 5455 c17 -13 34 -24 38 -25 5 0 -5 11 -21 25 -17 14 -34 25
-38 25 -5 0 5 -11 21 -25z"/>
<path d="M5084 5429 c-44 -13 -62 -35 -35 -44 20 -6 20 -8 5 -37 -13 -26 -14
-35 -3 -55 20 -38 46 -47 75 -29 28 19 39 53 26 86 -5 14 -10 29 -11 35 -1 10
2 11 52 13 30 2 37 26 11 36 -22 8 -83 6 -120 -5z"/>
<path d="M4967 5362 c-18 -20 -24 -77 -7 -67 6 3 10 17 10 30 0 12 7 25 15 29
16 6 21 26 7 26 -5 0 -16 -8 -25 -18z"/>
<path d="M1786 5334 c-3 -9 -6 -32 -7 -52 0 -32 -1 -34 -9 -14 -5 12 -11 22
-14 22 -2 0 -2 -10 1 -22 3 -17 2 -19 -5 -10 -7 11 -11 8 -15 -10 -9 -32 -8
-48 2 -48 5 0 11 10 14 22 4 12 9 20 12 17 10 -11 -18 -74 -43 -96 -31 -28
-42 -29 -35 -3 3 11 10 20 15 20 6 0 0 9 -13 21 l-24 20 25 -7 c24 -6 24 -6 5
9 -19 15 -19 15 5 36 l25 21 -25 19 c-14 11 -27 17 -30 14 -3 -2 -3 -5 -1 -6
10 -4 -21 -48 -32 -46 -26 3 -37 -2 -37 -16 0 -7 -7 -18 -15 -22 -10 -6 -13
-19 -8 -46 3 -20 10 -37 14 -37 5 0 9 -18 9 -40 0 -29 4 -40 15 -40 8 0 15 -7
15 -15 0 -8 14 -22 31 -31 23 -11 28 -18 19 -24 -9 -5 -11 -20 -7 -44 3 -20 1
-38 -4 -41 -9 -6 -3 -234 6 -244 3 -2 -2 -16 -9 -30 -26 -51 -56 -122 -56
-133 0 -6 10 -3 21 8 l22 19 -5 -73 c-3 -40 -11 -79 -17 -85 -6 -6 -11 -26
-11 -43 0 -29 -3 -33 -32 -36 -42 -4 -45 -19 -7 -43 24 -16 29 -25 25 -47 -3
-17 0 -28 9 -32 20 -7 19 -36 0 -36 -12 0 -13 -4 -6 -19 8 -15 7 -20 -5 -25
-9 -4 -14 -12 -10 -21 3 -8 9 -22 13 -32 4 -10 3 -14 -5 -9 -23 14 -21 -14 3
-38 14 -15 24 -30 20 -35 -3 -5 8 -32 24 -60 34 -57 54 -121 45 -144 -3 -9 -1
-24 4 -34 15 -26 -3 -53 -36 -54 -24 0 -22 -3 18 -22 l45 -21 -40 -6 -40 -6
28 -12 c16 -7 33 -12 38 -12 5 0 9 -4 9 -10 0 -5 -8 -10 -18 -10 -11 0 -18 -8
-19 -20 -1 -11 1 -19 5 -18 4 1 15 -2 25 -7 16 -7 15 -9 -7 -29 -13 -11 -43
-39 -67 -60 -48 -42 -118 -91 -122 -85 -11 19 -47 144 -48 166 0 15 -4 37 -8
48 -7 16 -9 12 -13 -20 -3 -25 0 -48 10 -62 8 -14 10 -23 4 -23 -6 0 -13 4
-16 9 -4 5 -24 12 -46 16 -41 7 -56 25 -20 25 11 0 20 5 20 11 0 6 -14 9 -32
7 -28 -3 -33 -6 -30 -27 4 -22 2 -23 -47 -17 -29 3 -52 2 -56 -4 -3 -6 1 -10
10 -10 9 0 13 -4 10 -10 -12 -19 -35 -10 -35 13 0 25 21 77 31 77 4 0 9 -9 12
-20 3 -13 10 -18 21 -14 41 16 -10 61 -58 52 -14 -3 -26 -1 -26 3 0 5 -4 9
-10 9 -5 0 -10 -7 -10 -15 0 -8 6 -15 13 -15 9 0 9 -2 0 -8 -8 -5 -9 -19 -4
-43 7 -32 6 -36 -9 -32 -10 3 -21 17 -25 31 -4 15 -13 34 -21 43 -12 14 -12
18 6 34 28 25 25 37 -7 33 -23 -2 -28 -8 -28 -30 1 -31 -5 -34 -23 -16 -6 6
-15 8 -19 4 -5 -5 2 -15 15 -23 24 -17 30 -51 9 -59 -7 -2 -13 -17 -14 -32 -1
-22 0 -23 6 -8 5 14 10 16 15 8 4 -7 4 -17 1 -23 -4 -6 1 -16 11 -24 18 -13
18 -14 1 -33 -13 -14 -15 -25 -9 -43 5 -13 6 -36 1 -52 -6 -21 -4 -29 7 -34
12 -5 12 -7 -2 -18 -14 -10 -15 -17 -6 -43 10 -30 10 -31 -36 -53 -26 -12 -66
-30 -88 -39 -23 -10 -78 -49 -122 -87 -44 -37 -91 -76 -104 -86 -39 -31 -129
-73 -213 -100 -44 -14 -134 -53 -200 -86 -70 -36 -127 -58 -137 -55 -11 3 -18
0 -18 -9 0 -7 -12 -20 -27 -28 -16 -7 -46 -25 -68 -40 -22 -14 -50 -29 -62
-33 l-23 -7 0 -1265 0 -1264 2335 0 2335 0 56 45 c30 25 63 45 74 45 10 0 22
5 25 10 19 31 55 -18 55 -76 l0 -24 338 0 337 0 -6 77 c-3 43 -11 98 -17 123
-16 67 -32 162 -32 196 0 22 9 39 31 58 l30 27 19 -22 c24 -27 54 -105 70
-184 12 -56 13 -58 27 -40 13 16 15 17 10 3 -3 -10 -2 -20 3 -23 6 -4 10 -11
10 -16 0 -6 -4 -7 -10 -4 -5 3 -10 3 -10 0 0 -9 27 -35 32 -30 2 2 5 -9 6 -25
1 -17 -2 -30 -7 -30 -5 0 -11 -25 -13 -55 l-3 -55 883 0 882 0 0 1014 0 1013
-49 74 c-63 97 -76 123 -91 189 -30 128 -77 204 -173 277 -34 26 -75 62 -91
80 -15 19 -52 49 -82 68 -29 19 -67 54 -84 77 -49 68 -143 160 -207 202 -32
22 -78 53 -103 69 -25 17 -70 56 -100 88 -50 51 -61 57 -120 69 -102 19 -131
30 -187 72 -35 27 -72 44 -114 54 -35 8 -78 24 -96 35 -28 18 -110 37 -243 56
-19 3 -46 14 -60 25 -15 12 -26 15 -28 9 -2 -7 -13 -4 -27 7 -13 10 -34 18
-47 17 -27 -2 -27 -2 -4 -37 22 -34 40 -37 31 -5 -4 17 -2 15 11 -7 11 -21 13
-31 5 -36 -9 -5 -7 -10 4 -20 17 -14 21 -55 5 -45 -6 4 -9 14 -8 23 2 11 -5
18 -22 20 -21 3 -22 2 -11 -12 8 -9 10 -26 6 -46 -7 -33 -25 -41 -25 -11 0 25
-16 36 -24 15 -3 -8 -10 -12 -16 -9 -21 13 -28 -7 -10 -25 11 -11 20 -29 20
-39 0 -30 11 -51 26 -51 9 0 14 -10 13 -27 -2 -25 -2 -25 -6 -5 -3 13 -10 21
-16 19 -6 -2 -22 19 -36 47 -28 55 -59 78 -41 31 14 -36 13 -42 -5 -19 -12 16
-14 16 -15 3 0 -9 6 -22 14 -28 7 -6 16 -30 20 -52 4 -26 10 -38 18 -33 8 5 9
2 5 -10 -4 -10 -7 -19 -7 -21 0 -2 -9 -1 -20 2 -22 6 -27 29 -7 36 9 3 9 7 -1
20 -8 9 -20 13 -28 10 -10 -4 -14 3 -14 22 0 15 -4 24 -10 20 -13 -8 -13 -55
0 -55 6 0 10 -11 10 -25 0 -18 7 -26 25 -31 16 -4 40 -28 65 -65 22 -32 44
-61 50 -64 5 -3 10 -13 10 -21 0 -8 -4 -13 -9 -9 -6 3 -13 0 -18 -7 -4 -7 -14
-13 -22 -13 -20 0 -25 -84 -6 -91 8 -3 17 -20 20 -37 4 -18 9 -41 12 -52 5
-17 4 -18 -10 -7 -12 10 -16 10 -19 0 -3 -8 -9 -4 -17 11 -12 21 -11 23 3 18
13 -5 16 0 16 24 0 17 -4 28 -10 24 -5 -3 -6 -13 -3 -23 6 -14 4 -15 -9 -4
-14 11 -17 9 -23 -18 -4 -16 -11 -28 -16 -24 -5 3 -7 10 -4 15 6 9 -8 13 -34
9 -13 -1 -13 1 -2 14 7 9 16 14 20 12 4 -3 13 -1 20 3 17 11 5 51 -15 51 -20
0 -17 20 4 20 16 1 16 1 0 14 -13 10 -15 15 -6 24 9 9 8 12 -5 12 -9 0 -17 -7
-17 -15 0 -8 -4 -15 -10 -15 -5 0 -10 7 -10 15 0 8 -4 15 -10 15 -5 0 -10 6
-10 13 -1 6 -12 26 -26 42 l-25 30 4 -50 c2 -27 7 -58 11 -68 6 -11 4 -17 -5
-17 -7 0 -9 3 -6 7 4 3 0 11 -8 17 -8 6 -17 33 -19 60 -6 55 -4 51 -33 60 -26
8 -30 -5 -8 -24 8 -7 15 -23 15 -36 0 -12 4 -25 9 -28 5 -3 12 -22 15 -41 4
-19 10 -35 15 -35 15 0 39 25 44 45 3 18 5 16 15 -8 7 -16 9 -34 5 -40 -4 -7
-6 -22 -4 -34 3 -29 -7 -29 -38 1 -15 14 -33 26 -41 28 -8 2 -19 12 -25 22
-17 32 -39 33 -33 2 3 -17 1 -26 -7 -26 -7 0 -15 -9 -18 -20 -6 -24 13 -80 28
-80 22 0 38 19 38 44 0 41 14 40 15 -1 1 -19 4 -44 7 -53 3 -10 0 -22 -6 -26
-8 -5 -9 -3 -4 6 5 8 4 11 -2 7 -6 -4 -13 -18 -15 -32 -4 -19 -1 -25 12 -25
10 0 21 -7 24 -16 3 -8 2 -12 -4 -9 -6 3 -10 -1 -10 -9 0 -9 6 -15 13 -13 7 1
12 -10 12 -30 0 -17 3 -29 7 -27 3 2 1 -7 -5 -20 -7 -13 -14 -23 -18 -21 -3 3
-14 34 -24 70 -9 36 -21 65 -26 65 -5 0 -5 -7 -2 -17 4 -10 2 -14 -5 -9 -11 7
-28 -31 -18 -41 3 -4 6 -1 6 6 0 7 5 9 11 6 6 -4 8 -13 5 -20 -3 -8 2 -19 10
-25 8 -7 14 -23 14 -36 0 -13 4 -24 10 -24 5 0 17 -14 25 -31 16 -30 16 -30
-4 -19 -12 6 -21 17 -21 25 0 8 -4 15 -8 15 -4 0 -12 15 -17 33 -6 17 -14 32
-20 32 -5 0 -16 4 -22 8 -10 6 -13 -1 -13 -26 0 -40 -25 -70 -33 -40 -3 10 -4
-26 -3 -80 3 -93 -6 -129 -21 -90 -4 10 -7 32 -7 50 0 19 -3 28 -8 20 -4 -6
-5 -39 -3 -72 7 -82 9 -93 23 -107 16 -16 15 -28 -3 -28 -8 0 -15 9 -15 20 0
11 -4 20 -8 20 -4 0 -9 15 -10 33 -4 46 -12 67 -25 64 -8 -1 -11 10 -9 32 2
22 0 31 -7 26 -6 -3 -11 1 -11 9 0 9 -6 16 -14 16 -11 0 -13 -9 -10 -34 2 -19
-1 -38 -7 -42 -7 -4 -9 10 -7 44 5 54 -1 61 -60 77 -21 6 -23 4 -17 -16 6 -17
4 -21 -8 -16 -10 4 -17 -2 -20 -14 -3 -12 0 -22 9 -26 11 -4 12 -9 3 -19 -6
-7 -8 -18 -4 -23 8 -14 -24 -61 -42 -61 -12 0 -14 -7 -10 -29 4 -21 1 -34 -13
-46 -11 -10 -20 -24 -20 -32 0 -18 -17 -16 -24 3 -3 9 -6 32 -6 52 0 22 -9 47
-21 62 -17 21 -19 22 -10 3 15 -30 14 -33 -6 -27 -13 4 -12 0 6 -15 13 -12 21
-27 17 -36 -3 -8 -1 -26 4 -39 7 -18 5 -26 -6 -30 -8 -3 -14 -14 -14 -24 0
-10 -7 -27 -15 -38 -14 -18 -15 -16 -9 21 4 22 6 42 6 45 0 41 -4 60 -12 60
-6 0 -8 -10 -4 -24 7 -30 -12 -44 -21 -15 -9 29 -20 11 -30 -50 -4 -25 -13
-51 -20 -58 -18 -17 -26 -16 -19 2 4 8 1 15 -4 15 -7 0 -9 -25 -6 -67 6 -96
-11 -48 -20 54 -7 87 -24 155 -25 101 -1 -27 -21 -41 -21 -15 0 8 -4 7 -10 -3
-14 -21 -12 -30 4 -30 8 0 16 -13 18 -30 7 -45 -8 -36 -36 22 l-25 53 -12 -33
c-12 -35 -35 -45 -24 -11 5 15 4 19 -4 15 -7 -5 -11 4 -11 23 0 34 -15 42 -24
14 -3 -10 -4 -6 -2 10 4 34 -17 36 -32 2 -8 -17 -16 -23 -28 -18 -13 5 -16 3
-11 -10 3 -9 2 -17 -4 -17 -5 0 -14 10 -19 23 -5 12 -9 18 -10 12 0 -5 -5 -3
-10 5 -9 13 -12 13 -24 -2 -19 -26 -27 -22 -20 9 4 20 3 24 -4 14 -5 -7 -10
-31 -10 -52 -1 -21 -5 -47 -11 -56 -9 -15 -10 -13 -11 14 0 17 -5 33 -11 35
-9 3 -9 10 0 27 7 12 9 26 5 29 -4 4 -9 1 -11 -6 -3 -6 -8 -10 -13 -7 -4 3
-13 -2 -20 -10 -7 -8 -9 -15 -4 -15 5 0 -2 -7 -14 -16 -17 -12 -22 -25 -23
-62 0 -26 -4 -56 -8 -67 -12 -30 -23 66 -17 138 4 34 2 57 -4 57 -6 0 -10 -22
-10 -49 0 -33 -5 -53 -16 -62 -15 -12 -16 -10 -10 21 4 19 10 44 13 54 4 14 1
18 -11 13 -8 -3 -18 -2 -21 4 -4 5 1 12 10 15 8 4 15 11 14 18 -1 6 1 19 5 28
4 9 4 24 -1 32 -6 11 -16 -8 -37 -69 -16 -46 -32 -82 -37 -79 -4 2 -6 11 -2
19 3 9 0 22 -7 31 -10 11 -10 18 -2 26 7 7 12 19 12 27 -1 11 -9 7 -26 -13
-20 -22 -24 -36 -20 -58 5 -28 -8 -40 -17 -15 -4 9 -8 8 -16 -3 -7 -9 -11 -10
-11 -3 0 6 4 14 9 17 5 4 4 19 -2 36 l-12 30 -17 -22 -18 -23 0 29 c0 16 3 26
7 23 12 -12 33 15 33 42 -1 25 -1 25 -16 6 -8 -11 -17 -18 -20 -15 -3 3 -12
-8 -19 -25 l-13 -30 3 40 c2 22 6 54 10 70 6 29 6 29 -9 11 -9 -11 -16 -24
-16 -28 0 -5 -9 -18 -19 -29 -19 -21 -19 -21 -30 -1 -9 16 -7 19 7 18 9 0 17
6 17 14 0 8 -6 14 -14 12 -10 -2 -12 3 -6 20 15 48 18 81 7 74 -6 -3 -14 -27
-18 -52 -3 -25 -13 -48 -21 -51 -8 -3 -12 -12 -9 -20 3 -8 2 -11 -3 -8 -5 3
-12 -5 -14 -17 -2 -13 -2 6 1 41 5 67 -10 81 -22 20 -3 -18 -9 -29 -12 -26 -4
3 -1 20 5 38 15 44 5 50 -13 9 -10 -25 -11 -40 -4 -56 6 -13 7 -35 3 -51 -7
-24 -10 -19 -20 42 -7 39 -10 72 -6 75 3 3 16 19 28 36 21 30 21 34 8 84 -18
70 -25 73 -26 14 -1 -27 -3 -41 -6 -31 -2 9 -8 17 -13 17 -15 0 -17 -24 -4
-56 7 -18 9 -36 4 -44 -6 -9 -9 -3 -12 21 -2 26 -8 35 -25 37 -25 4 -30 17
-10 26 9 5 9 7 0 12 -10 4 -9 12 2 35 9 16 17 47 19 70 4 39 4 40 -11 19 -13
-19 -13 -24 -2 -31 10 -6 11 -9 2 -9 -7 0 -13 -6 -13 -13 0 -7 -11 -29 -25
-48 -16 -20 -24 -42 -21 -54 6 -24 -61 -102 -75 -88 -6 6 0 15 15 23 50 26 61
104 35 238 -7 34 -16 62 -20 62 -15 0 -21 -22 -10 -33 6 -6 11 -18 10 -26 0
-10 -4 -8 -11 7 -9 18 -17 22 -35 17 -19 -4 -24 -2 -22 12 1 10 -2 33 -6 51
-6 26 -12 33 -26 29 -11 -3 -19 -1 -19 4 0 5 5 9 10 9 6 0 10 14 10 30 0 17 6
39 12 50 11 17 9 23 -11 42 -13 13 -21 18 -17 11 9 -17 -3 -40 -26 -46 -18 -5
-19 -4 -4 12 12 14 14 24 7 42 -5 13 -10 20 -10 15 -1 -5 -8 -3 -16 4 -8 6
-19 9 -25 5 -5 -3 -10 -2 -10 4 0 11 20 26 34 26 5 0 11 6 14 14 7 20 -39 4
-60 -21 -27 -31 -23 -48 12 -48 22 0 28 -4 24 -15 -7 -17 -40 -20 -49 -5 -8
13 -35 1 -67 -32 -30 -31 -39 -17 -16 25 7 12 13 28 14 35 3 19 11 25 32 27 9
0 23 4 30 9 17 10 15 29 -3 22 -8 -3 -15 -1 -15 4 0 6 5 10 10 10 6 0 10 7 10
15 0 8 5 15 10 15 6 0 10 -7 10 -17 0 -14 2 -15 18 -1 9 8 25 18 35 21 9 4 17
13 17 22 0 8 4 15 8 15 5 0 14 10 20 23 11 22 11 22 11 -4 1 -15 8 -30 17 -33
8 -3 12 -2 9 4 -3 6 -1 10 5 10 8 0 10 9 6 24 -5 20 -3 23 14 19 16 -4 19 -2
14 11 -5 12 -2 15 9 10 9 -3 26 1 39 10 24 17 42 21 34 8 -2 -4 4 -13 15 -20
10 -7 19 -8 19 -4 0 5 13 9 29 10 20 0 31 -5 34 -16 3 -13 6 -12 14 8 12 29
102 68 113 49 5 -6 10 -1 13 13 4 14 14 24 26 25 13 1 18 -3 14 -13 -3 -9 2
-14 17 -14 13 0 19 -4 14 -11 -4 -7 1 -7 16 1 16 9 25 9 33 1 6 -6 25 -11 42
-11 24 0 35 6 43 24 10 22 15 24 41 16 19 -5 33 -4 41 3 6 7 25 12 43 13 76 2
83 4 64 15 -22 13 -11 32 14 24 11 -4 27 -1 35 6 8 6 17 9 21 5 4 -3 -2 -13
-13 -21 -10 -8 -15 -15 -10 -15 5 0 17 6 25 14 22 19 61 30 61 17 0 -6 7 -11
15 -11 8 0 15 4 15 9 0 6 13 18 30 27 24 15 28 23 24 43 -5 24 -4 24 9 9 12
-16 15 -14 31 19 15 32 15 35 1 29 -9 -3 -24 -6 -33 -6 -10 0 -22 -10 -27 -22
-15 -33 -33 -34 -27 -1 5 28 5 28 -16 9 -21 -18 -52 -16 -52 4 0 19 -18 10
-23 -11 -4 -15 -11 -20 -21 -16 -10 4 -16 1 -16 -7 0 -7 -7 -19 -15 -26 -8 -7
-13 -16 -10 -20 3 -5 -4 -6 -15 -3 -10 3 -18 8 -17 12 1 3 -5 22 -12 41 -12
30 -14 32 -20 15 -12 -35 -34 -75 -42 -75 -14 0 -31 71 -25 106 5 25 4 34 -6
32 -19 -4 -22 48 -7 110 7 28 9 55 4 60 -4 4 -10 1 -12 -5 -9 -24 -19 -13 -17
17 1 17 -2 30 -8 30 -5 0 -6 -9 -3 -20 5 -14 2 -20 -9 -20 -9 0 -16 -3 -16 -8
0 -4 -10 -12 -22 -17 -21 -9 -24 -22 -36 -120 -8 -60 -16 -112 -18 -114 -2 -2
-11 -1 -20 3 -14 5 -16 15 -10 59 4 28 8 57 8 64 1 7 4 10 8 8 7 -5 32 116 25
123 -2 3 -11 -1 -20 -8 -13 -11 -15 -8 -15 21 l0 34 -20 -30 c-17 -26 -20 -27
-21 -10 -1 11 -1 23 0 28 2 11 -14 8 -27 -5 -7 -7 -12 -8 -12 -3 0 5 -7 -1
-16 -14 -13 -18 -18 -20 -25 -10 -6 10 -9 11 -9 2 0 -7 -6 -13 -14 -13 -19 0
-60 -115 -59 -165 1 -29 -1 -34 -7 -20 -6 17 -9 13 -19 -24 -18 -65 -22 -44
-5 28 8 35 13 66 10 68 -8 8 -27 -67 -29 -116 -2 -45 -12 -59 -28 -38 -4 5
-11 -5 -17 -22 -17 -49 -22 -36 -14 37 4 37 7 101 7 142 0 63 -3 75 -18 78
-35 7 -115 -82 -142 -158 -20 -54 -66 -142 -72 -136 -3 3 0 19 7 35 19 47 6
59 -19 18 -12 -20 -29 -37 -38 -37 -8 0 -20 -13 -26 -30 -6 -16 -16 -30 -23
-30 -6 0 -16 -12 -22 -26 -12 -25 -32 -25 -32 1 0 7 -7 15 -15 18 -15 6 -77
-47 -88 -76 -3 -9 -13 -17 -22 -17 -18 0 -19 11 -2 29 20 21 -32 2 -57 -20
-29 -27 -36 -23 -25 13 10 37 3 50 -15 25 -15 -19 -36 -23 -36 -6 0 5 -5 7
-11 4 -6 -4 -13 2 -16 14 -3 11 -9 18 -14 15 -5 -3 -14 8 -20 25 -6 17 -14 31
-18 31 -13 0 -37 -33 -51 -70 -19 -51 -34 -62 -25 -20 7 34 7 35 -12 17 -11
-9 -23 -14 -28 -10 -4 5 -5 0 -2 -9 3 -10 2 -20 -3 -23 -6 -4 -10 -1 -10 6 0
10 -3 10 -12 1 -14 -14 -28 -16 -28 -3 0 5 9 13 20 16 13 4 20 15 20 32 0 15
-5 23 -12 21 -20 -7 -46 -62 -41 -85 3 -15 0 -25 -11 -29 -9 -3 -21 -25 -28
-48 -10 -33 -13 -37 -16 -18 -2 13 1 28 6 35 6 7 13 30 16 52 3 22 3 31 0 20
-3 -11 -11 -24 -16 -30 -13 -12 0 35 13 49 15 16 10 46 -7 46 -12 0 -14 4 -7
13 12 14 2 59 -13 64 -6 2 -17 -10 -24 -26 -7 -17 -16 -28 -21 -25 -5 3 -9 -4
-9 -14 0 -11 -7 -22 -15 -26 -10 -4 -15 1 -15 14 0 11 3 20 8 20 4 0 6 21 4
46 -3 33 -8 44 -18 40 -8 -3 -13 0 -11 6 1 6 -4 13 -12 16 -10 3 -12 -2 -7
-21 6 -25 -9 -48 -16 -26 -5 14 -48 -6 -48 -21 0 -6 -5 -10 -11 -10 -7 0 -9
12 -5 34 5 24 2 37 -10 47 -14 11 -18 10 -30 -6 -13 -18 -14 -17 -14 13 0 18
-5 32 -11 32 -5 0 -7 5 -3 12 4 6 3 8 -3 5 -22 -14 -35 20 -24 59 11 40 8 61
-4 25 -7 -24 -25 -28 -25 -6 0 22 -15 18 -33 -7 l-16 -23 0 28 c-1 25 -9 32
-38 28 -7 -1 -13 -1 -13 1 0 2 7 36 15 77 16 75 14 105 -4 57 -6 -14 -12 -26
-15 -26 -2 0 -9 24 -16 53 -6 28 -19 68 -27 87 -15 31 -14 37 0 62 9 16 12 30
6 33 -5 4 -9 -1 -9 -9 0 -19 -11 -20 -29 -3 -11 10 -12 7 -7 -15 4 -17 2 -28
-4 -28 -5 0 -10 6 -10 14 0 7 -9 20 -21 27 -16 11 -21 26 -22 64 -1 28 -6 53
-11 57 -6 4 -10 24 -9 45 1 48 -3 55 -28 40 -26 -16 -42 6 -26 40 12 27 4 41
-15 25 -10 -8 -12 -1 -9 36 3 41 1 45 -12 34 -20 -17 -26 -5 -29 57 -1 28 -5
51 -8 51 -3 0 -13 -12 -23 -27 -18 -28 -18 -28 -12 -3 4 14 8 39 9 55 1 25 -3
30 -21 29 -13 0 -23 3 -23 8 0 4 5 8 11 8 8 0 8 4 1 13 -6 7 -8 34 -6 60 4 39
2 47 -12 47 -12 0 -15 6 -11 21 3 11 0 22 -7 25 -14 5 -16 16 -16 80 0 25 -6
47 -15 54 -8 7 -15 11 -15 9 0 -2 -7 -22 -15 -44 l-14 -40 2 61 c2 52 4 60 20
56 18 -5 20 2 7 33 -7 18 -8 19 -15 3 -4 -10 -11 -18 -16 -18 -15 0 -10 37 7
54 8 9 17 40 20 72 4 48 2 58 -18 75 -13 12 -17 18 -10 14 8 -4 12 4 13 27 0
18 2 48 5 67 4 29 2 32 -11 21 -13 -10 -15 -9 -15 10 0 16 4 20 15 16 9 -3 15
0 15 9 0 9 -6 12 -15 9 -11 -5 -13 -2 -9 10 3 9 13 16 21 16 8 0 11 5 8 11
-10 15 -12 159 -3 159 4 0 8 7 8 16 0 8 -5 12 -10 9 -7 -4 -8 7 -4 33 6 40 -8
66 -20 36z m-32 -211 c-6 -2 -9 -16 -6 -31 4 -26 4 -26 -12 -7 -15 20 -15 20
-16 -2 0 -13 -4 -23 -10 -23 -12 0 -13 30 -2 45 10 15 46 33 52 27 3 -2 0 -7
-6 -9z m-4 -170 c0 -5 -7 -17 -15 -27 -15 -20 -20 -10 -9 18 6 16 24 22 24 9z
m-100 -767 c0 -3 -4 -8 -10 -11 -5 -3 -10 -1 -10 4 0 6 5 11 10 11 6 0 10 -2
10 -4z m2290 -687 c0 -10 -4 -20 -9 -23 -4 -3 -17 -35 -27 -71 -10 -36 -22
-65 -26 -65 -13 0 -9 108 5 122 31 34 51 61 41 55 -7 -4 -14 2 -17 14 -5 20
-5 20 14 3 10 -9 19 -25 19 -35z m-65 31 c3 -5 1 -10 -4 -10 -6 0 -11 5 -11
10 0 6 2 10 4 10 3 0 8 -4 11 -10z m-37 -82 c-3 -7 -13 -15 -24 -17 -16 -3
-17 -1 -5 13 16 19 34 21 29 4z m-2509 -14 c26 -5 31 -11 31 -34 0 -30 -31
-46 -59 -30 -14 8 -14 9 2 15 23 10 22 25 -3 25 -11 0 -20 -7 -20 -15 0 -8 -5
-15 -11 -15 -6 0 -8 6 -5 13 3 6 9 20 12 30 7 19 9 20 53 11z m2735 -46 c8 35
26 44 26 12 0 -11 5 -20 10 -20 15 0 12 -21 -7 -42 -15 -17 -15 -19 3 -32 10
-8 16 -18 12 -22 -5 -4 -17 1 -28 11 -20 18 -20 17 -21 -11 l-1 -29 -11 28
c-13 32 -27 36 -27 6 0 -11 -4 -18 -9 -15 -5 3 -9 29 -9 57 0 39 3 49 14 45
10 -4 14 3 15 22 0 26 1 25 13 -8 l13 -35 7 33z m-1727 0 c-3 -8 -6 -5 -6 6
-1 11 2 17 5 13 3 -3 4 -12 1 -19z m1273 -53 c-12 -25 -26 -45 -31 -45 -12 0
-11 6 1 28 5 9 17 35 26 57 12 29 18 35 21 22 3 -9 -5 -38 -17 -62z m-2370 57
c0 -14 -11 -21 -26 -15 -21 8 -17 23 6 23 11 0 20 -4 20 -8z m510 1 c-1 -19
-29 -43 -51 -43 l-24 1 28 24 c28 25 47 32 47 18z m2040 3 c0 -11 -19 -15 -25
-6 -3 5 1 10 9 10 9 0 16 -2 16 -4z m-2340 -36 c0 -5 -5 -10 -11 -10 -5 0 -7
5 -4 10 3 6 8 10 11 10 2 0 4 -4 4 -10z m4267 -10 c-1 -11 -5 -20 -9 -20 -10
0 -10 4 -2 24 8 22 13 20 11 -4z m-4413 1 c3 -5 -3 -11 -13 -14 -14 -3 -18 -1
-14 9 6 16 19 18 27 5z m1076 5 c0 -2 -7 -17 -15 -32 -15 -29 -22 -13 -9 20 5
14 24 23 24 12z m3280 -12 c0 -8 -4 -12 -10 -9 -5 3 -10 10 -10 16 0 5 5 9 10
9 6 0 10 -7 10 -16z m-4295 -15 c4 -11 4 -23 1 -26 -3 -4 -6 1 -6 10 0 10 -4
17 -10 17 -5 0 -10 5 -10 10 0 18 19 10 25 -11z m4300 -19 c-3 -5 -12 -10 -18
-10 -7 0 -6 4 3 10 19 12 23 12 15 0z m-4005 -30 c0 -5 -5 -10 -11 -10 -5 0
-7 5 -4 10 3 6 8 10 11 10 2 0 4 -4 4 -10z m75 -15 c26 -27 34 -75 12 -75 -7
0 -13 -9 -13 -20 0 -12 5 -19 12 -16 7 3 15 -2 18 -10 4 -9 -1 -14 -15 -14
-16 0 -19 -4 -15 -17 7 -18 -9 -33 -36 -33 -12 0 -15 5 -11 15 3 10 0 15 -8
13 -10 -2 -14 10 -14 47 0 28 -4 56 -8 63 -12 18 12 44 34 37 14 -5 16 -1 12
15 -7 27 1 25 32 -5z m1749 -20 c4 -19 3 -25 -2 -17 -7 10 -12 3 -17 -25 -7
-35 -8 -36 -16 -15 -6 16 -4 35 6 59 17 41 19 40 29 -2z m321 5 c-3 -5 -10
-10 -16 -10 -5 0 -9 5 -9 10 0 6 7 10 16 10 8 0 12 -4 9 -10z m1832 -22 c-3
-8 -6 -5 -6 6 -1 11 2 17 5 13 3 -3 4 -12 1 -19z m-1434 -5 c-7 -2 -21 -2 -30
0 -10 3 -4 5 12 5 17 0 24 -2 18 -5z m-851 -35 c-7 -7 -12 -22 -12 -34 0 -23
-25 -40 -35 -24 -4 6 -1 10 4 10 6 0 18 16 26 37 8 20 18 33 22 29 4 -3 1 -12
-5 -18z m359 -15 c-12 -20 -14 -14 -5 12 4 9 9 14 11 11 3 -2 0 -13 -6 -23z
m-121 -4 c0 -5 -4 -9 -10 -9 -5 0 -10 7 -10 16 0 8 5 12 10 9 6 -3 10 -10 10
-16z m-355 -35 c-23 -17 -32 -10 -15 11 7 8 17 12 23 8 6 -4 3 -11 -8 -19z
m211 -21 c-8 -15 -15 -22 -16 -15 0 14 22 53 28 47 2 -2 -3 -16 -12 -32z
m2169 -1 c-15 -16 -16 -15 -4 12 7 15 15 23 17 16 3 -7 -3 -19 -13 -28z
m-2665 13 c0 -8 -4 -15 -10 -15 -5 0 -7 7 -4 15 4 8 8 15 10 15 2 0 4 -7 4
-15z m2585 -5 c3 -6 -1 -7 -9 -4 -18 7 -21 14 -7 14 6 0 13 -4 16 -10z m-2892
-20 c-3 -12 -8 -19 -11 -16 -5 6 5 36 12 36 2 0 2 -9 -1 -20z m824 -2 c-3 -8
-6 -5 -6 6 -1 11 2 17 5 13 3 -3 4 -12 1 -19z m-677 -22 c0 -3 -4 -8 -10 -11
-5 -3 -10 -1 -10 4 0 6 5 11 10 11 6 0 10 -2 10 -4z m2821 -13 c13 -16 12 -17
-3 -4 -10 7 -18 15 -18 17 0 8 8 3 21 -13z m-3859 -7 c12 -18 10 -68 -3 -61
-6 4 -13 -2 -16 -14 -7 -26 -33 -28 -33 -3 0 10 -5 23 -11 29 -5 5 -7 21 -4
35 5 19 13 26 33 26 15 0 30 -5 34 -12z m1513 -80 c-16 -24 -16 -26 -1 -20 22
8 12 -17 -12 -33 -15 -9 -18 -7 -17 11 0 24 33 81 42 73 2 -3 -3 -17 -12 -31z
m-123 12 c-9 -9 -15 -9 -24 0 -9 9 -7 12 12 12 19 0 21 -3 12 -12z m48 2 c0
-5 -7 -10 -15 -10 -8 0 -15 5 -15 10 0 6 7 10 15 10 8 0 15 -4 15 -10z m45 0
c-3 -5 -13 -10 -21 -10 -8 0 -14 5 -14 10 0 6 9 10 21 10 11 0 17 -4 14 -10z
m-145 -22 c0 -7 -5 -20 -10 -28 -8 -12 -10 -9 -10 13 0 15 5 27 10 27 6 0 10
-6 10 -12z m130 -62 c0 -7 -11 -18 -25 -24 -26 -12 -36 -48 -11 -39 16 7 14 0
-19 -65 -15 -30 -16 -42 -7 -60 10 -21 11 -22 12 -3 0 11 7 29 15 39 8 11 15
30 15 42 0 12 7 27 16 35 13 11 14 9 8 -16 -4 -15 -7 -35 -8 -44 -1 -9 -7 -25
-13 -36 -6 -11 -18 -52 -26 -91 -8 -40 -19 -78 -23 -87 -14 -23 -75 -71 -68
-53 3 9 10 16 15 16 5 0 15 10 24 23 12 19 13 33 4 81 -7 42 -7 61 1 71 18 21
9 70 -12 69 -15 -2 -18 7 -18 46 0 43 2 48 19 43 16 -4 18 -9 10 -30 -14 -37
-9 -52 6 -18 19 40 19 75 0 75 -8 0 -15 8 -15 17 0 13 3 14 12 5 18 -18 46
-14 58 8 11 21 30 19 30 -4z m2330 -29 c0 -15 -3 -16 -20 -7 -17 9 -18 14 -9
32 9 17 13 18 20 7 5 -8 9 -22 9 -32z m61 11 c16 -6 36 -74 25 -85 -3 -3 -12
10 -20 28 -10 25 -15 29 -15 14 -1 -17 -3 -17 -11 -5 -11 17 -13 81 -2 64 4
-6 14 -13 23 -16z m-271 -88 c0 -5 -4 -10 -9 -10 -6 0 -13 5 -16 10 -3 6 1 10
9 10 9 0 16 -4 16 -10z m268 -45 c-1 -38 -1 -38 -5 -7 -4 28 -8 33 -24 29 -12
-3 -19 0 -19 9 0 9 9 13 25 12 22 -2 25 -6 23 -43z m-2303 -5 c-4 -6 -2 -17 5
-25 6 -8 7 -16 2 -19 -6 -3 -12 4 -15 16 -6 21 -1 38 9 38 3 0 2 -5 -1 -10z
m2125 -5 c0 -2 -7 -5 -15 -9 -9 -3 -15 0 -15 9 0 9 6 12 15 9 8 -4 15 -7 15
-9z m-2020 -5 c0 -5 -4 -10 -10 -10 -5 0 -10 5 -10 10 0 6 5 10 10 10 6 0 10
-4 10 -10z m-54 -37 c-8 -15 -15 -25 -16 -21 0 12 23 58 27 54 3 -2 -2 -17
-11 -33z m-76 24 c0 -2 -9 -12 -20 -22 -24 -21 -27 -14 -4 9 15 15 24 20 24
13z m2230 -6 c1 9 4 8 11 -4 8 -13 7 -22 -1 -33 -9 -10 -9 -14 -1 -14 6 0 11
-12 10 -27 l0 -28 -11 25 c-6 14 -17 38 -25 54 -17 37 -16 41 2 26 12 -10 15
-10 15 1z m-2100 -26 c0 -33 -15 -33 -16 0 -1 14 2 25 7 25 5 0 9 -11 9 -25z
m-209 -100 c-15 -46 -21 -56 -26 -41 -5 10 -3 21 2 25 12 7 26 46 28 81 4 46
8 55 12 25 2 -16 -5 -57 -16 -90z m2235 60 c29 -30 30 -42 3 -50 -12 -4 -18
-12 -15 -21 8 -21 -12 -17 -26 6 -7 11 -20 20 -28 20 -10 0 -11 -3 -4 -8 6 -4
14 -17 18 -29 5 -17 13 -21 35 -18 19 3 35 -3 47 -16 14 -15 14 -19 3 -19 -8
0 -20 5 -27 12 -9 9 -12 9 -12 0 0 -7 8 -16 18 -19 18 -7 32 -22 32 -36 0 -5
-17 4 -37 20 -21 16 -50 37 -65 46 -15 9 -25 23 -22 30 2 7 -2 30 -11 50 -19
46 -19 85 0 42 7 -16 11 -33 8 -37 -2 -5 1 -8 8 -8 6 0 9 8 6 20 -8 30 12 35
23 6 6 -16 17 -26 30 -26 26 0 25 12 -4 39 -16 15 -22 29 -18 40 6 14 7 14 10
-2 2 -10 14 -29 28 -42z m210 3 c24 -46 11 -43 -16 4 -13 22 -18 38 -11 34 6
-4 18 -21 27 -38z m-186 11 c0 -6 -4 -7 -10 -4 -5 3 -10 11 -10 16 0 6 5 7 10
4 6 -3 10 -11 10 -16z m-2070 -19 c0 -5 -7 -10 -15 -10 -8 0 -15 5 -15 10 0 6
7 10 15 10 8 0 15 -4 15 -10z m2180 -5 c0 -8 -2 -15 -4 -15 -2 0 -6 7 -10 15
-3 8 -1 15 4 15 6 0 10 -7 10 -15z m-2003 -82 c-3 -10 -5 -4 -5 12 0 17 2 24
5 18 2 -7 2 -21 0 -30z m1903 28 c0 -5 -7 -11 -14 -14 -10 -4 -13 -1 -9 9 6
15 23 19 23 5z m-2363 -43 c-3 -8 -6 -5 -6 6 -1 11 2 17 5 13 3 -3 4 -12 1
-19z m2407 -34 c-3 -31 -10 -39 -19 -25 -3 6 -2 11 4 11 13 0 3 29 -18 54 -16
19 -15 19 10 2 19 -12 25 -24 23 -42z m-2140 32 c-10 -8 -21 -12 -24 -10 -5 6
21 24 34 24 6 0 1 -6 -10 -14z m127 -52 c-7 -31 -9 -34 -10 -12 -1 27 9 62 15
55 3 -2 0 -22 -5 -43z m1899 10 c0 -12 -2 -12 -14 -2 -8 7 -12 16 -9 21 7 11
23 -2 23 -19z m38 -26 c7 -7 12 -17 12 -22 0 -6 -5 -4 -10 4 -8 12 -11 13 -19
1 -5 -8 -16 -11 -30 -6 -31 9 -26 27 5 19 19 -5 25 -4 20 5 -9 15 7 14 22 -1z
m-2103 -17 c-3 -6 -11 -11 -17 -11 -6 0 -6 6 2 15 14 17 26 13 15 -4z m139
-68 c-10 -15 -23 -32 -29 -38 -7 -5 -19 -23 -28 -40 -9 -17 -16 -23 -17 -14 0
8 18 40 40 69 22 29 41 61 41 69 1 13 2 13 6 -1 2 -9 -4 -29 -13 -45z m1986
16 c0 -6 -4 -7 -10 -4 -5 3 -10 11 -10 16 0 6 5 7 10 4 6 -3 10 -11 10 -16z
m-43 -14 c5 -4 1 -6 -7 -3 -8 2 -22 -4 -30 -15 -16 -19 -16 -19 -27 5 -10 22
-9 24 23 23 19 -1 37 -5 41 -10z m-127 -39 c0 -12 -5 -7 -19 24 -11 24 -11 24
3 6 9 -11 16 -24 16 -30z m55 25 c3 -5 1 -12 -5 -16 -5 -3 -10 1 -10 9 0 18 6
21 15 7z m-378 -33 c-3 -8 -6 -5 -6 6 -1 11 2 17 5 13 3 -3 4 -12 1 -19z m30
-20 c-3 -8 -6 -5 -6 6 -1 11 2 17 5 13 3 -3 4 -12 1 -19z m348 12 c3 -5 1 -10
-4 -10 -6 0 -11 5 -11 10 0 6 2 10 4 10 3 0 8 -4 11 -10z m140 0 c7 -12 -2
-12 -30 0 -19 8 -19 9 2 9 12 1 25 -3 28 -9z m-62 -27 c-7 -2 -21 -2 -30 0
-10 3 -4 5 12 5 17 0 24 -2 18 -5z m-477 -38 c-15 -15 -16 -15 -16 3 0 24 11
35 23 23 6 -6 4 -16 -7 -26z m-1349 3 c-3 -8 -6 -5 -6 6 -1 11 2 17 5 13 3 -3
4 -12 1 -19z m1661 -3 c6 -14 8 -25 3 -25 -4 0 -13 11 -19 25 -6 14 -8 25 -3
25 4 0 13 -11 19 -25z m-1581 -22 c-3 -10 -5 -4 -5 12 0 17 2 24 5 18 2 -7 2
-21 0 -30z m-280 -35 c-3 -7 -5 -2 -5 12 0 14 2 19 5 13 2 -7 2 -19 0 -25z
m378 -13 c6 -29 6 -29 -9 -11 -9 11 -16 29 -16 40 0 28 17 8 25 -29z m1455 4
c0 -18 -18 -9 -23 12 -4 16 -3 18 9 8 8 -6 14 -15 14 -20z m-1660 -10 c0 -5
-4 -9 -10 -9 -5 0 -10 7 -10 16 0 8 5 12 10 9 6 -3 10 -10 10 -16z m-83 -36
c-3 -10 -5 -4 -5 12 0 17 2 24 5 18 2 -7 2 -21 0 -30z m1680 -15 c-3 -8 -6 -5
-6 6 -1 11 2 17 5 13 3 -3 4 -12 1 -19z m-1446 -11 c-10 -9 -11 -8 -5 6 3 10
9 15 12 12 3 -3 0 -11 -7 -18z m1541 1 c-7 -7 -12 -8 -12 -2 0 14 12 26 19 19
2 -3 -1 -11 -7 -17z m-832 2 c0 -5 -2 -10 -4 -10 -3 0 -8 5 -11 10 -3 6 -1 10
4 10 6 0 11 -4 11 -10z m-1673 -37 c-3 -10 -5 -4 -5 12 0 17 2 24 5 18 2 -7 2
-21 0 -30z m699 -50 c-3 -3 -9 3 -13 13 -4 10 -13 25 -20 32 -7 7 -13 21 -13
30 0 9 12 -2 26 -26 14 -24 23 -46 20 -49z m324 20 c0 -32 -16 -29 -23 5 -3
15 -9 36 -12 47 -6 16 -3 16 14 -5 11 -14 21 -35 21 -47z m70 52 c0 -8 -4 -15
-10 -15 -5 0 -7 7 -4 15 4 8 8 15 10 15 2 0 4 -7 4 -15z m66 -21 c-4 -9 -9
-15 -11 -12 -3 3 -3 13 1 22 4 9 9 15 11 12 3 -3 3 -13 -1 -22z m907 1 c-7
-21 -13 -19 -13 6 0 11 4 18 10 14 5 -3 7 -12 3 -20z m-604 -25 c6 -19 7 -30
2 -25 -5 6 -13 24 -17 40 -9 39 0 30 15 -15z m328 8 c-3 -7 -5 -2 -5 12 0 14
2 19 5 13 2 -7 2 -19 0 -25z m643 -3 c0 -5 -5 -3 -10 5 -5 8 -10 20 -10 25 0
6 5 3 10 -5 5 -8 10 -19 10 -25z m67 3 c-3 -8 -6 -5 -6 6 -1 11 2 17 5 13 3
-3 4 -12 1 -19z m-1157 2 c0 -5 -4 -10 -10 -10 -5 0 -10 5 -10 10 0 6 5 10 10
10 6 0 10 -4 10 -10z m-133 -37 c-3 -10 -5 -4 -5 12 0 17 2 24 5 18 2 -7 2
-21 0 -30z m1059 -9 c-4 -20 -10 -34 -12 -31 -3 3 -2 21 2 41 3 21 9 35 11 32
3 -3 2 -21 -1 -42z m-56 -5 c0 -41 -15 -36 -17 6 -1 20 3 33 8 30 5 -4 9 -19
9 -36z m138 16 c-3 -3 -9 2 -12 12 -6 14 -5 15 5 6 7 -7 10 -15 7 -18z m-535
-8 c4 3 7 4 7 1 0 -3 -8 -12 -17 -19 -11 -10 -14 -10 -9 -1 4 6 2 12 -3 12 -6
0 -11 5 -11 11 0 8 4 9 13 0 8 -6 17 -8 20 -4z m188 -10 c-10 -9 -11 -8 -5 6
3 10 9 15 12 12 3 -3 0 -11 -7 -18z m306 1 c-3 -8 -6 -5 -6 6 -1 11 2 17 5 13
3 -3 4 -12 1 -19z m-737 8 c0 -3 -4 -8 -10 -11 -5 -3 -10 -1 -10 4 0 6 5 11
10 11 6 0 10 -2 10 -4z m492 -40 c-2 -20 -7 -34 -11 -32 -4 3 -5 21 -3 40 2
20 7 34 11 32 4 -3 5 -21 3 -40z m318 29 c0 -8 -4 -15 -10 -15 -5 0 -10 7 -10
15 0 8 5 15 10 15 6 0 10 -7 10 -15z m-210 -15 c-6 -11 -13 -20 -16 -20 -2 0
0 9 6 20 6 11 13 20 16 20 2 0 0 -9 -6 -20z m308 -21 c-7 -5 -21 -9 -30 -9
-17 0 -17 1 -1 20 13 15 20 17 30 8 11 -9 12 -13 1 -19z m-1722 -14 c9 -37 0
-40 -13 -5 -6 17 -7 30 -2 30 5 0 11 -11 15 -25z m404 -18 c0 -5 -4 -5 -10 -2
-5 3 -10 14 -10 23 0 15 2 15 10 2 5 -8 10 -19 10 -23z m1530 13 c0 -5 -9 -10
-20 -10 -11 0 -20 5 -20 10 0 6 9 10 20 10 11 0 20 -4 20 -10z m-740 -29 c0
-6 -4 -13 -10 -16 -5 -3 -10 1 -10 9 0 9 5 16 10 16 6 0 10 -4 10 -9z m50 4
c0 -9 -34 -45 -42 -45 -5 0 -1 11 8 25 14 22 34 34 34 20z m363 -15 c3 -11 3
-20 1 -20 -2 0 -8 9 -14 20 -6 11 -7 20 -2 20 6 0 12 -9 15 -20z m72 -58 c3
-18 2 -33 -4 -37 -7 -3 -11 2 -11 14 0 11 -9 22 -20 26 -22 7 -26 20 -10 30 6
3 10 16 10 28 0 20 1 20 14 -5 8 -15 17 -40 21 -56z m-185 27 c0 -4 -9 -9 -19
-12 -24 -6 -36 19 -20 39 10 12 14 11 25 -3 7 -10 14 -21 14 -24z m288 -4 c-3
-3 -9 2 -12 12 -6 14 -5 15 5 6 7 -7 10 -15 7 -18z m-1689 -25 c0 -10 -3 -8
-9 5 -12 27 -12 43 0 25 5 -8 9 -22 9 -30z m1497 -82 c3 -58 2 -89 -4 -83 -5
6 -12 55 -16 110 -4 71 -3 95 4 83 6 -9 13 -59 16 -110z m169 112 c3 -5 2 -10
-4 -10 -5 0 -13 5 -16 10 -3 6 -2 10 4 10 5 0 13 -4 16 -10z m-145 -36 c0 -8
-4 -12 -10 -9 -5 3 -10 10 -10 16 0 5 5 9 10 9 6 0 10 -7 10 -16z m-643 -36
c-3 -7 -5 -2 -5 12 0 14 2 19 5 13 2 -7 2 -19 0 -25z m413 -117 c6 -12 7 -21
2 -21 -4 0 -17 26 -29 58 -16 46 -18 62 -9 82 10 22 12 19 18 -37 4 -34 12
-71 18 -82z m160 129 c0 -5 -2 -10 -4 -10 -3 0 -8 5 -11 10 -3 6 -1 10 4 10 6
0 11 -4 11 -10z m-40 -10 c0 -5 -4 -10 -10 -10 -5 0 -10 5 -10 10 0 6 5 10 10
10 6 0 10 -4 10 -10z m31 -17 c13 -16 12 -17 -3 -4 -17 13 -22 21 -14 21 2 0
10 -8 17 -17z m155 -27 c10 -32 9 -34 -8 -25 -10 5 -18 21 -18 34 0 36 13 31
26 -9z m-243 -22 c-4 -11 -9 -10 -24 7 -26 31 -24 43 5 23 15 -9 23 -21 19
-30z m-248 16 c3 -5 1 -10 -4 -10 -6 0 -11 5 -11 10 0 6 2 10 4 10 3 0 8 -4
11 -10z m105 -10 c0 -5 -2 -10 -4 -10 -3 0 -8 5 -11 10 -3 6 -1 10 4 10 6 0
11 -4 11 -10z m-893 -22 c-3 -8 -6 -5 -6 6 -1 11 2 17 5 13 3 -3 4 -12 1 -19z
m188 -6 c-3 -3 -11 0 -18 7 -9 10 -8 11 6 5 10 -3 15 -9 12 -12z m724 -32 c4
0 5 -15 3 -32 -4 -28 -6 -30 -13 -13 -4 11 -7 34 -7 50 0 17 2 22 5 13 2 -10
8 -18 12 -18z m341 4 c0 -8 -4 -12 -10 -9 -5 3 -10 10 -10 16 0 5 5 9 10 9 6
0 10 -7 10 -16z m-540 2 c0 -3 -4 -8 -10 -11 -5 -3 -10 -1 -10 4 0 6 5 11 10
11 6 0 10 -2 10 -4z m-410 -16 c0 -5 -2 -10 -4 -10 -3 0 -8 5 -11 10 -3 6 -1
10 4 10 6 0 11 -4 11 -10z m-55 -20 c3 -5 1 -10 -4 -10 -6 0 -11 5 -11 10 0 6
2 10 4 10 3 0 8 -4 11 -10z m612 -12 c-3 -8 -6 -5 -6 6 -1 11 2 17 5 13 3 -3
4 -12 1 -19z m271 -63 c-3 -3 -11 1 -18 10 -7 8 -21 15 -31 15 -11 0 -19 6
-19 14 0 8 -3 22 -6 31 -4 9 13 -2 36 -24 24 -23 41 -43 38 -46z m116 70 c3
-8 1 -15 -3 -15 -5 0 -11 7 -15 15 -3 8 -1 15 3 15 5 0 11 -7 15 -15z m-604
-20 c0 -8 -2 -15 -4 -15 -2 0 -6 7 -10 15 -3 8 -1 15 4 15 6 0 10 -7 10 -15z
m150 -7 c0 -19 -2 -20 -10 -8 -13 19 -13 30 0 30 6 0 10 -10 10 -22z m-300 -3
c11 -13 10 -14 -4 -9 -9 3 -16 10 -16 15 0 13 6 11 20 -6z m796 -13 c-9 -9
-37 8 -31 18 5 8 11 7 21 -1 8 -6 12 -14 10 -17z m-1019 -14 c-3 -7 -5 -2 -5
12 0 14 2 19 5 13 2 -7 2 -19 0 -25z m772 -13 c21 -21 41 -35 50 -35 5 0 11
-7 14 -14 4 -10 1 -13 -8 -10 -10 4 -12 -4 -8 -38 3 -24 11 -49 17 -57 8 -10
6 -12 -9 -10 -17 4 -20 14 -22 59 -2 34 -8 57 -17 62 -16 9 -56 70 -56 84 0 5
7 0 15 -11 8 -11 19 -24 24 -30z m-259 -20 c0 -23 -15 -18 -28 10 -18 39 -14
51 8 27 11 -12 20 -28 20 -37z m420 45 c13 -9 13 -10 0 -10 -10 0 -7 -7 10
-20 l25 -21 -29 7 c-25 6 -28 5 -22 -11 5 -15 4 -16 -9 -5 -11 10 -13 15 -4
20 6 5 8 16 4 29 -7 23 1 26 25 11z m-2063 -32 c-3 -7 -5 -2 -5 12 0 14 2 19
5 13 2 -7 2 -19 0 -25z m1956 1 c4 -16 3 -18 -9 -8 -16 13 -19 29 -5 29 5 0
11 -9 14 -21z m-1313 -24 c-6 -15 -13 -25 -16 -23 -2 3 1 17 7 32 16 34 23 27
9 -9z m732 13 c-7 -7 -12 -8 -12 -2 0 14 12 26 19 19 2 -3 -1 -11 -7 -17z
m111 8 c4 -10 1 -13 -8 -9 -8 3 -12 9 -9 14 7 12 11 11 17 -5z m-1366 -18 c-3
-8 -6 -5 -6 6 -1 11 2 17 5 13 3 -3 4 -12 1 -19z m1491 0 c7 -7 12 -16 12 -20
0 -15 -15 -8 -28 12 -13 22 -3 27 16 8z m92 2 c0 -5 -2 -10 -4 -10 -3 0 -8 5
-11 10 -3 6 -1 10 4 10 6 0 11 -4 11 -10z m-133 -22 c13 -12 23 -26 23 -31 0
-6 -3 -7 -7 -4 -3 4 -12 2 -20 -4 -10 -9 -13 -7 -13 9 0 12 -4 24 -10 27 -11
7 -14 25 -3 25 4 0 17 -10 30 -22z m555 -14 c-3 -26 -8 -34 -19 -30 -8 3 -17
6 -19 6 -2 0 -4 5 -4 11 0 6 7 9 15 5 11 -4 15 1 15 19 0 14 4 25 8 25 4 0 6
-16 4 -36z m-1112 16 c0 -5 -2 -10 -4 -10 -3 0 -8 5 -11 10 -3 6 -1 10 4 10 6
0 11 -4 11 -10z m839 -20 c16 -23 19 -35 12 -48 -9 -14 -10 -13 -11 11 0 15
-6 30 -14 33 -8 3 -17 12 -20 20 -9 24 9 15 33 -16z m-569 -54 c-1 -6 -7 4
-15 23 -8 18 -15 38 -15 45 1 6 7 -4 15 -23 8 -18 15 -38 15 -45z m390 58 c0
-8 -5 -12 -10 -9 -6 4 -8 11 -5 16 9 14 15 11 15 -7z m-190 -15 c0 -5 -7 -9
-15 -9 -9 0 -12 6 -9 15 6 15 24 11 24 -6z m-300 -15 c0 -8 -4 -12 -10 -9 -5
3 -10 10 -10 16 0 5 5 9 10 9 6 0 10 -7 10 -16z m460 -56 c0 -17 -1 -17 -18 0
-10 9 -14 18 -10 20 4 2 6 16 3 30 -5 26 -5 26 9 -3 9 -16 15 -38 16 -47z
m-170 22 c-18 -11 -24 -6 -16 16 5 14 9 15 19 5 9 -9 9 -14 -3 -21z m-1258 -2
c-7 -7 -12 -8 -12 -2 0 14 12 26 19 19 2 -3 -1 -11 -7 -17z m1006 -3 c-3 -3
-9 2 -12 12 -6 14 -5 15 5 6 7 -7 10 -15 7 -18z m792 15 c0 -5 -2 -10 -4 -10
-3 0 -8 5 -11 10 -3 6 -1 10 4 10 6 0 11 -4 11 -10z m-320 -58 c0 -23 -17 -4
-23 25 -5 26 -4 26 9 8 8 -10 14 -25 14 -33z m-203 6 c-3 -7 -5 -2 -5 12 0 14
2 19 5 13 2 -7 2 -19 0 -25z m283 -1 c0 -4 -6 -2 -14 5 -8 7 -12 17 -9 22 5 8
23 -12 23 -27z m-476 -3 c10 -38 -10 -55 -24 -20 -10 28 -6 46 10 46 4 0 11
-12 14 -26z m604 1 c-3 -3 -9 2 -12 12 -6 14 -5 15 5 6 7 -7 10 -15 7 -18z
m168 4 c19 -22 19 -22 -3 -10 -13 6 -23 16 -23 21 0 15 5 12 26 -11z m41 -11
c-3 -7 -5 -2 -5 12 0 14 2 19 5 13 2 -7 2 -19 0 -25z m-282 1 c4 -6 13 -8 21
-5 8 3 14 -1 14 -9 0 -21 -24 -18 -45 5 -10 11 -13 20 -7 20 6 0 14 -5 17 -11z
m-395 -23 c5 -14 5 -36 0 -53 l-8 -28 -1 30 c-1 17 -4 40 -7 53 -8 30 4 28 16
-2z m200 4 c0 -5 -2 -10 -4 -10 -3 0 -8 5 -11 10 -3 6 -1 10 4 10 6 0 11 -4
11 -10z m350 -34 c0 -6 -7 -1 -15 10 -8 10 -15 23 -15 28 0 6 7 1 15 -10 8
-10 15 -23 15 -28z m35 34 c4 -6 14 -9 22 -8 9 2 18 -3 20 -9 4 -10 -3 -10
-26 -2 -31 11 -51 29 -32 29 5 0 13 -5 16 -10z m-345 -21 c0 -11 -4 -17 -10
-14 -5 3 -10 13 -10 21 0 8 5 14 10 14 6 0 10 -9 10 -21z m-92 -25 c-4 -3 -12
5 -18 18 -12 22 -12 22 6 6 10 -10 15 -20 12 -24z m-85 -17 c2 -20 0 -34 -5
-31 -4 3 -8 21 -8 41 0 45 10 38 13 -10z m117 11 c0 -5 -4 -8 -10 -8 -5 0 -10
10 -10 23 0 18 2 19 10 7 5 -8 10 -18 10 -22z m82 -13 c6 -28 -6 -34 -16 -9
-5 14 0 34 8 34 2 0 6 -11 8 -25z m-485 -7 c-3 -8 -6 -5 -6 6 -1 11 2 17 5 13
3 -3 4 -12 1 -19z m379 -26 c6 -15 9 -46 8 -70 -1 -30 2 -42 12 -42 8 0 14 -4
14 -8 0 -4 -9 -8 -20 -8 -18 0 -20 7 -20 58 0 31 -4 60 -10 63 -12 7 -14 35
-2 35 4 0 12 -12 18 -28z m84 7 c0 -6 -4 -7 -10 -4 -5 3 -10 11 -10 16 0 6 5
7 10 4 6 -3 10 -11 10 -16z m-143 -11 c-3 -8 -6 -5 -6 6 -1 11 2 17 5 13 3 -3
4 -12 1 -19z m440 -41 c-3 -7 -8 0 -12 16 -4 15 -11 27 -17 27 -5 0 -6 5 -2
11 9 14 37 -36 31 -54z m160 31 c-3 -7 -5 -2 -5 12 0 14 2 19 5 13 2 -7 2 -19
0 -25z m-820 -15 c-3 -10 -5 -4 -5 12 0 17 2 24 5 18 2 -7 2 -21 0 -30z m410
-5 c-3 -7 -5 -2 -5 12 0 14 2 19 5 13 2 -7 2 -19 0 -25z m-220 -10 c-3 -8 -6
-5 -6 6 -1 11 2 17 5 13 3 -3 4 -12 1 -19z m-437 -14 c0 -8 -4 -12 -10 -9 -5
3 -10 10 -10 16 0 5 5 9 10 9 6 0 10 -7 10 -16z m461 -29 c5 4 9 2 9 -4 0 -5
-4 -13 -10 -16 -5 -3 -10 -2 -10 4 0 6 -7 8 -15 5 -18 -7 -19 2 -2 20 10 12
13 12 15 0 2 -8 8 -12 13 -9z m-106 -15 c-4 -12 -9 -19 -12 -17 -3 3 -2 15 2
27 4 12 9 19 12 17 3 -3 2 -15 -2 -27z m615 20 c0 -5 -7 -7 -15 -4 -8 4 -15 8
-15 10 0 2 7 4 15 4 8 0 15 -4 15 -10z m-570 -32 c0 -19 -2 -20 -10 -8 -13 19
-13 30 0 30 6 0 10 -10 10 -22z m515 12 c3 -5 2 -10 -4 -10 -5 0 -13 5 -16 10
-3 6 -2 10 4 10 5 0 13 -4 16 -10z m-205 -40 c12 -8 11 -10 -7 -10 -12 0 -25
5 -28 10 -8 13 15 13 35 0z m-523 -22 c-3 -8 -6 -5 -6 6 -1 11 2 17 5 13 3 -3
4 -12 1 -19z m478 2 c3 -5 2 -10 -4 -10 -5 0 -13 5 -16 10 -3 6 -2 10 4 10 5
0 13 -4 16 -10z m-1918 -32 c-3 -7 -5 -2 -5 12 0 14 2 19 5 13 2 -7 2 -19 0
-25z m519 6 c-4 -9 -9 -15 -11 -12 -3 3 -3 13 1 22 4 9 9 15 11 12 3 -3 3 -13
-1 -22z m721 -6 c-3 -7 -5 -2 -5 12 0 14 2 19 5 13 2 -7 2 -19 0 -25z m810 0
c-3 -8 -6 -5 -6 6 -1 11 2 17 5 13 3 -3 4 -12 1 -19z m-147 -23 c15 -18 -1
-20 -19 -2 -10 10 -10 7 -2 -15 12 -33 7 -37 -9 -8 -18 34 6 54 30 25z m-1700
-21 c0 -8 -4 -12 -10 -9 -5 3 -10 13 -10 21 0 8 5 12 10 9 6 -3 10 -13 10 -21z
m992 -24 c-13 -21 -21 -27 -25 -17 -3 7 5 25 16 40 28 33 34 19 9 -23z m125 8
c-3 -8 -6 -5 -6 6 -1 11 2 17 5 13 3 -3 4 -12 1 -19z m533 12 c0 -5 -5 -10
-11 -10 -5 0 -7 5 -4 10 3 6 8 10 11 10 2 0 4 -4 4 -10z m-1853 -57 c-3 -10
-5 -2 -5 17 0 19 2 27 5 18 2 -10 2 -26 0 -35z m420 25 c-3 -8 -6 -5 -6 6 -1
11 2 17 5 13 3 -3 4 -12 1 -19z m1013 -30 c0 -6 -6 -5 -15 2 -8 7 -15 14 -15
16 0 2 7 1 15 -2 8 -4 15 -11 15 -16z m2166 -25 c3 -16 14 -57 24 -93 29 -102
42 -173 39 -200 -3 -21 -11 -11 -43 54 -22 44 -48 88 -58 98 -10 10 -18 29
-18 42 0 13 -7 29 -15 36 -22 18 -18 55 8 73 34 24 56 21 63 -10z m-1736 -29
c0 -8 -6 -11 -15 -8 -8 4 -15 9 -15 13 0 4 7 8 15 8 8 0 15 -6 15 -13z m-762
-25 c-3 -8 -7 -3 -11 10 -4 17 -3 21 5 13 5 -5 8 -16 6 -23z m672 10 c0 -6 -4
-7 -10 -4 -5 3 -10 11 -10 16 0 6 5 7 10 4 6 -3 10 -11 10 -16z m-36 -24 c-4
-8 -8 -15 -10 -15 -2 0 -4 7 -4 15 0 8 4 15 10 15 5 0 7 -7 4 -15z m-479 -5
c3 -6 -1 -7 -9 -4 -18 7 -21 14 -7 14 6 0 13 -4 16 -10z m-206 -120 c0 -10 -3
-8 -9 5 -12 27 -12 43 0 25 5 -8 9 -22 9 -30z m686 0 c10 -11 13 -20 7 -20 -6
0 -16 9 -22 20 -6 11 -9 20 -7 20 2 0 12 -9 22 -20z m122 -82 c-3 -8 -6 -5 -6
6 -1 11 2 17 5 13 3 -3 4 -12 1 -19z m-846 -25 c13 -16 12 -17 -3 -4 -17 13
-22 21 -14 21 2 0 10 -8 17 -17z m-174 -35 c-3 -8 -6 -5 -6 6 -1 11 2 17 5 13
3 -3 4 -12 1 -19z m-3437 -28 c0 -5 -7 -7 -15 -4 -8 4 -15 8 -15 10 0 2 7 4
15 4 8 0 15 -4 15 -10z m3427 -12 c-3 -8 -6 -5 -6 6 -1 11 2 17 5 13 3 -3 4
-12 1 -19z m880 -40 c-3 -8 -6 -5 -6 6 -1 11 2 17 5 13 3 -3 4 -12 1 -19z"/>
<path d="M4021 3334 c0 -11 3 -14 6 -6 3 7 2 16 -1 19 -3 4 -6 -2 -5 -13z"/>
<path d="M1705 3140 c-3 -5 -1 -10 4 -10 6 0 11 5 11 10 0 6 -2 10 -4 10 -3 0
-8 -4 -11 -10z"/>
<path d="M3300 5249 c0 -13 40 -48 55 -48 6 0 0 8 -12 18 -13 11 -23 24 -23
30 0 6 -4 11 -10 11 -5 0 -10 -5 -10 -11z"/>
<path d="M4960 5250 c0 -5 5 -10 11 -10 5 0 7 5 4 10 -3 6 -8 10 -11 10 -2 0
-4 -4 -4 -10z"/>
<path d="M3559 5233 c-13 -16 -12 -17 4 -4 9 7 17 15 17 17 0 8 -8 3 -21 -13z"/>
<path d="M3480 5200 c-19 -5 -38 -6 -42 -4 -8 5 -22 -15 -15 -22 7 -8 97 17
97 27 0 5 -1 9 -2 8 -2 -1 -19 -5 -38 -9z"/>
<path d="M1283 4828 c-35 -12 -42 -23 -19 -31 8 -3 20 1 26 9 7 8 19 14 26 14
8 0 14 5 14 10 0 12 -4 11 -47 -2z"/>
<path d="M4207 4068 c-17 -13 -15 -15 30 -35 56 -24 113 -36 113 -24 0 5 11
12 25 15 56 14 9 40 -93 51 -41 5 -62 3 -75 -7z"/>
<path d="M2132 3840 c0 -14 2 -19 5 -12 2 6 2 18 0 25 -3 6 -5 1 -5 -13z"/>
<path d="M1077 3706 c10 -13 20 -20 21 -15 5 12 -17 39 -30 39 -5 0 -1 -11 9
-24z"/>
<path d="M4220 3721 c0 -19 42 -50 68 -51 22 0 30 14 13 24 -5 4 -12 0 -14 -6
-4 -9 -8 -9 -14 -3 -21 26 -53 47 -53 36z"/>
<path d="M1060 3669 c0 -5 5 -7 10 -4 6 3 10 8 10 11 0 2 -4 4 -10 4 -5 0 -10
-5 -10 -11z"/>
<path d="M1087 3633 c-3 -5 -2 -15 2 -22 7 -10 10 -10 16 -1 4 6 3 16 -3 22
-5 5 -12 6 -15 1z"/>
<path d="M1441 3601 c-1 -24 2 -32 9 -25 7 7 7 19 1 35 -9 23 -10 22 -10 -10z"/>
<path d="M1168 3603 c7 -3 16 -2 19 1 4 3 -2 6 -13 5 -11 0 -14 -3 -6 -6z"/>
<path d="M4199 3590 c26 -23 41 -25 41 -8 0 6 -3 9 -6 5 -4 -3 -13 0 -21 8 -8
8 -20 15 -26 15 -7 -1 -1 -10 12 -20z"/>
<path d="M3664 3575 c-17 -25 -14 -42 4 -31 9 5 23 56 16 56 -2 0 -11 -11 -20
-25z"/>
<path d="M3736 3573 c-6 -14 -5 -15 5 -6 7 7 10 15 7 18 -3 3 -9 -2 -12 -12z"/>
<path d="M4005 3571 c-6 -11 9 -23 19 -14 9 9 7 23 -3 23 -6 0 -12 -4 -16 -9z"/>
<path d="M4143 3547 c-9 -32 -9 -33 16 -32 20 0 27 -6 29 -22 2 -13 8 -23 13
-23 12 0 11 21 -1 40 -5 9 -5 19 2 27 8 10 6 13 -6 13 -9 0 -19 7 -22 15 -10
24 -20 18 -31 -18z"/>
<path d="M3697 3540 c-38 -157 -46 -217 -27 -205 6 3 10 17 10 31 0 13 9 50
20 81 14 41 17 67 12 88 l-9 30 -6 -25z"/>
<path d="M2323 3535 c-3 -9 -3 -18 -1 -21 3 -3 8 4 11 16 6 23 -1 27 -10 5z"/>
<path d="M4274 3531 l19 -21 -31 6 c-18 4 -32 3 -32 -2 1 -20 21 -39 42 -39
13 0 23 -6 24 -15 3 -39 6 -43 15 -15 5 17 5 32 0 35 -5 3 -11 19 -13 35 -2
20 -9 31 -23 34 -20 3 -20 3 -1 -18z"/>
<path d="M4685 3510 c4 -6 11 -8 16 -5 14 9 11 15 -7 15 -8 0 -12 -5 -9 -10z"/>
<path d="M2361 3474 c0 -11 3 -14 6 -6 3 7 2 16 -1 19 -3 4 -6 -2 -5 -13z"/>
<path d="M4147 3473 c-4 -3 -7 -11 -7 -17 0 -6 5 -5 12 2 6 6 9 14 7 17 -3 3
-9 2 -12 -2z"/>
<path d="M4230 3457 c1 -14 49 -106 50 -94 1 25 -24 96 -36 101 -8 3 -14 0
-14 -7z"/>
<path d="M3483 3438 c-13 -17 -34 -93 -23 -82 8 9 40 94 35 94 -1 0 -7 -6 -12
-12z"/>
<path d="M5521 3441 c-11 -7 -8 -13 13 -26 20 -14 30 -15 39 -6 8 8 7 11 -6
11 -9 0 -20 7 -24 15 -5 9 -13 11 -22 6z"/>
<path d="M4480 3400 c0 -5 5 -10 11 -10 5 0 7 5 4 10 -3 6 -8 10 -11 10 -2 0
-4 -4 -4 -10z"/>
<path d="M4826 3363 c-6 -14 -5 -15 5 -6 7 7 10 15 7 18 -3 3 -9 -2 -12 -12z"/>
<path d="M5230 3361 c0 -5 5 -13 10 -16 6 -3 10 -2 10 4 0 5 -4 13 -10 16 -5
3 -10 2 -10 -4z"/>
<path d="M5270 3311 c0 -5 5 -13 10 -16 6 -3 10 -2 10 4 0 5 -4 13 -10 16 -5
3 -10 2 -10 -4z"/>
<path d="M5400 3290 c8 -5 20 -10 25 -10 6 0 3 5 -5 10 -8 5 -19 10 -25 10 -5
0 -3 -5 5 -10z"/>
<path d="M5360 3214 c0 -8 5 -12 10 -9 6 3 10 10 10 16 0 5 -4 9 -10 9 -5 0
-10 -7 -10 -16z"/>
<path d="M2730 3195 c0 -8 2 -15 4 -15 2 0 6 7 10 15 3 8 1 15 -4 15 -6 0 -10
-7 -10 -15z"/>
<path d="M5412 3086 c1 -10 8 -17 13 -17 15 1 12 24 -3 29 -9 3 -13 -2 -10
-12z"/>
<path d="M5316 3073 c-4 -9 0 -23 7 -31 13 -12 15 -10 15 12 0 31 -13 43 -22
19z"/>
<path d="M5165 3040 c-9 -28 -4 -31 18 -15 15 11 15 14 3 24 -12 10 -16 8 -21
-9z"/>
<path d="M5260 3049 c0 -5 9 -9 20 -9 11 0 20 2 20 4 0 2 -9 6 -20 9 -11 3
-20 1 -20 -4z"/>
<path d="M5447 3054 c-6 -6 19 -67 36 -92 14 -18 36 4 33 33 -3 25 -25 59 -34
50 -3 -3 -10 0 -17 5 -7 5 -15 7 -18 4z"/>
<path d="M5365 3031 c-3 -5 2 -17 11 -25 8 -9 11 -16 5 -16 -5 0 -3 -13 5 -30
17 -34 26 -37 44 -15 7 8 19 15 26 15 12 0 11 5 -2 25 -9 14 -20 23 -24 20 -4
-3 -10 4 -13 15 -5 20 -41 28 -52 11z"/>
<path d="M5220 2996 c0 -9 5 -16 10 -16 6 0 10 4 10 9 0 6 -4 13 -10 16 -5 3
-10 -1 -10 -9z"/>
<path d="M3430 2990 c0 -5 5 -10 11 -10 5 0 7 5 4 10 -3 6 -8 10 -11 10 -2 0
-4 -4 -4 -10z"/>
<path d="M5137 2940 c10 -17 19 -26 21 -20 8 22 22 8 22 -21 0 -39 19 -77 30
-59 8 12 4 96 -5 110 -3 4 -15 5 -29 3 -13 -3 -27 0 -30 6 -17 27 -25 8 -9
-19z"/>
<path d="M3468 2933 c-10 -2 -18 -8 -18 -13 0 -10 38 -1 46 11 5 9 1 10 -28 2z"/>
<path d="M3480 2880 c0 -5 5 -10 10 -10 6 0 10 5 10 10 0 6 -4 10 -10 10 -5 0
-10 -4 -10 -10z"/>
<path d="M3510 2850 c0 -17 2 -19 14 -8 14 13 12 28 -5 28 -5 0 -9 -9 -9 -20z"/>
<path d="M5037 2839 c4 -12 14 -24 24 -26 25 -7 31 -41 12 -70 -16 -24 -16
-25 13 -21 24 2 29 7 27 28 -3 23 -2 23 8 6 22 -36 46 -55 58 -43 7 7 13 4 19
-12 7 -19 10 -21 20 -8 16 19 -13 107 -36 107 -9 0 -26 10 -39 22 -34 32 -28
4 7 -31 46 -46 18 -47 -36 0 -26 22 -53 47 -61 55 -19 19 -22 18 -16 -7z m68
-99 c3 -5 1 -10 -4 -10 -6 0 -11 5 -11 10 0 6 2 10 4 10 3 0 8 -4 11 -10z"/>
<path d="M3480 2793 c0 -22 2 -25 10 -13 13 20 13 40 0 40 -5 0 -10 -12 -10
-27z"/>
<path d="M3498 2764 c-3 -3 -3 -14 -1 -25 5 -16 8 -18 14 -7 16 25 6 51 -13
32z"/>
<path d="M3597 2706 c-4 -10 -7 -25 -6 -34 0 -11 4 -9 10 7 5 13 8 29 6 35 -2
5 -6 2 -10 -8z"/>
<path d="M5125 2680 c0 -16 3 -30 8 -30 4 0 7 -6 7 -14 0 -15 24 -28 34 -19 3
4 1 12 -5 19 -6 8 -9 21 -5 29 3 8 1 15 -4 15 -6 0 -10 7 -10 15 0 8 -6 15
-12 15 -8 0 -13 -13 -13 -30z"/>
<path d="M5082 2689 c2 -6 8 -10 13 -10 5 0 11 4 13 10 2 6 -4 11 -13 11 -9 0
-15 -5 -13 -11z"/>
<path d="M5220 2675 c-7 -8 -8 -15 -2 -15 5 0 15 7 22 15 7 8 8 15 2 15 -5 0
-15 -7 -22 -15z"/>
<path d="M3647 2653 c-4 -3 -7 -13 -7 -22 1 -13 3 -13 11 2 11 19 8 33 -4 20z"/>
<path d="M5106 2610 c4 -19 11 -39 16 -45 5 -5 6 5 2 25 -4 19 -11 39 -16 45
-5 5 -6 -5 -2 -25z"/>
<path d="M3602 2600 c0 -14 2 -19 5 -12 2 6 2 18 0 25 -3 6 -5 1 -5 -13z"/>
<path d="M5000 2610 c0 -5 5 -10 11 -10 5 0 7 5 4 10 -3 6 -8 10 -11 10 -2 0
-4 -4 -4 -10z"/>
<path d="M4926 2557 c9 -57 20 -76 50 -83 31 -8 38 -1 26 23 -5 10 -18 35 -28
55 -10 20 -26 39 -36 41 -16 5 -17 0 -12 -36z"/>
<path d="M5065 2590 c-3 -5 -1 -10 4 -10 6 0 11 5 11 10 0 6 -2 10 -4 10 -3 0
-8 -4 -11 -10z"/>
<path d="M5005 2571 c-3 -6 3 -24 14 -41 10 -17 16 -40 14 -51 -3 -12 0 -19 9
-19 7 0 19 -15 26 -32 9 -25 15 -30 21 -19 5 8 7 20 4 28 -3 7 -1 13 5 13 5 0
8 15 6 33 -1 17 -3 38 -3 45 -1 6 -6 12 -12 12 -6 0 -22 9 -36 20 -28 22 -39
25 -48 11z"/>
<path d="M3811 2524 c0 -11 3 -14 6 -6 3 7 2 16 -1 19 -3 4 -6 -2 -5 -13z"/>
<path d="M3761 2494 c0 -11 3 -14 6 -6 3 7 2 16 -1 19 -3 4 -6 -2 -5 -13z"/>
<path d="M3825 2470 c-4 -17 -5 -34 -2 -36 3 -3 8 9 12 26 4 17 5 34 2 36 -3
3 -8 -9 -12 -26z"/>
<path d="M3885 2490 c-3 -5 -1 -10 4 -10 6 0 11 5 11 10 0 6 -2 10 -4 10 -3 0
-8 -4 -11 -10z"/>
<path d="M4871 2483 c0 -5 9 -26 20 -48 18 -37 17 -18 -2 33 -8 21 -20 31 -18
15z"/>
<path d="M3851 2454 c0 -11 3 -14 6 -6 3 7 2 16 -1 19 -3 4 -6 -2 -5 -13z"/>
<path d="M4370 2460 c0 -5 5 -10 11 -10 5 0 7 5 4 10 -3 6 -8 10 -11 10 -2 0
-4 -4 -4 -10z"/>
<path d="M3792 2418 c-7 -7 -12 -19 -12 -27 1 -10 5 -7 14 8 10 18 15 20 19
10 3 -8 6 -9 6 -2 1 18 -14 24 -27 11z"/>
<path d="M4910 2364 c0 -8 5 -12 10 -9 6 4 8 11 5 16 -9 14 -15 11 -15 -7z"/>
<path d="M4830 2301 c0 -11 5 -23 10 -26 6 -3 10 3 10 14 0 11 -4 23 -10 26
-5 3 -10 -3 -10 -14z"/>
<path d="M4485 2287 c5 -17 2 -33 -6 -44 -10 -12 -10 -15 -1 -9 8 5 12 0 12
-13 0 -12 4 -21 9 -21 11 0 2 92 -11 105 -6 6 -7 0 -3 -18z"/>
<path d="M4842 2220 c0 -14 2 -19 5 -12 2 6 2 18 0 25 -3 6 -5 1 -5 -13z"/>
<path d="M4534 2209 c-3 -6 -1 -16 5 -22 8 -8 11 -5 11 11 0 24 -5 28 -16 11z"/>
<path d="M4687 2176 c-5 -15 -6 -31 -3 -34 8 -8 18 25 14 45 -3 13 -6 10 -11
-11z"/>
<path d="M4660 2109 c0 -11 4 -18 10 -14 5 3 7 12 3 20 -7 21 -13 19 -13 -6z"/>
</g>
</svg>
