<svg width="48" height="48" viewBox="0 0 48 48" fill="none" xmlns="http://www.w3.org/2000/svg">
<rect width="48" height="48" fill="#323238"/>
<path d="M23.99 14C18.53 14 14.08 18.45 14.08 23.91C14.08 25.66 14.54 27.36 15.4 28.86L14 34L19.25 32.62C20.7 33.41 22.33 33.83 23.99 33.83C29.45 33.83 33.9 29.38 33.9 23.92C33.9 21.27 32.87 18.78 31 16.91C29.13 15.03 26.64 14 23.99 14ZM24 15.67C26.2 15.67 28.26 16.53 29.82 18.09C31.37 19.65 32.23 21.72 32.23 23.92C32.23 28.46 28.53 32.15 23.99 32.15C22.51 32.15 21.06 31.76 19.8 31L19.5 30.83L16.38 31.65L17.21 28.61L17.01 28.29C16.19 27 15.75 25.47 15.75 23.91C15.76 19.37 19.45 15.67 24 15.67ZM20.48 19.33C20.32 19.33 20.05 19.39 19.82 19.64C19.6 19.89 18.95 20.5 18.95 21.71C18.95 22.93 19.84 24.1 19.95 24.27C20.09 24.44 21.71 26.94 24.2 28C24.79 28.27 25.25 28.42 25.61 28.53C26.2 28.72 26.74 28.69 27.17 28.63C27.65 28.56 28.63 28.03 28.84 27.45C29.05 26.87 29.05 26.38 28.99 26.27C28.92 26.17 28.76 26.11 28.51 26C28.26 25.86 27.04 25.26 26.82 25.18C26.59 25.1 26.45 25.06 26.26 25.3C26.1 25.55 25.62 26.11 25.48 26.27C25.33 26.44 25.19 26.46 24.95 26.34C24.69 26.21 23.89 25.95 22.95 25.11C22.21 24.45 21.72 23.64 21.57 23.39C21.45 23.15 21.56 23 21.68 22.89C21.79 22.78 21.95 22.6 22.05 22.45C22.18 22.31 22.22 22.2 22.3 22.04C22.38 21.87 22.34 21.73 22.28 21.61C22.22 21.5 21.72 20.26 21.51 19.77C21.31 19.29 21.11 19.35 20.95 19.34C20.81 19.34 20.65 19.33 20.48 19.33Z" fill="white"/>
</svg>
